<mxfile host="app.diagrams.net" agent="Mozilla/5.0 (Windows NT 10.0; Win64; x64) AppleWebKit/537.36 (KHTML, like Gecko) Chrome/133.0.0.0 Safari/537.36" version="26.0.15">
  <diagram name="primera-versiÃ³n" id="tEh8A0kTCnHdKqJ51D3F">
    <mxGraphModel dx="2219" dy="617" grid="1" gridSize="10" guides="1" tooltips="1" connect="1" arrows="1" fold="1" page="1" pageScale="1" pageWidth="1169" pageHeight="827" math="0" shadow="0">
      <root>
        <mxCell id="0" />
        <mxCell id="1" parent="0" />
        <mxCell id="yJ8dsvp7RU6qVgDbuZnN-1" style="rounded=0;orthogonalLoop=1;jettySize=auto;html=1;entryX=1;entryY=0.5;entryDx=0;entryDy=0;endArrow=none;endFill=0;strokeColor=#196ea3;fontColor=#B266FF;" edge="1" parent="1" source="yJ8dsvp7RU6qVgDbuZnN-12" target="yJ8dsvp7RU6qVgDbuZnN-9">
          <mxGeometry relative="1" as="geometry" />
        </mxCell>
        <mxCell id="yJ8dsvp7RU6qVgDbuZnN-2" style="rounded=0;orthogonalLoop=1;jettySize=auto;html=1;endArrow=none;endFill=0;fontColor=#61af4b;strokeColor=#2D7600;fillColor=#60a917;entryX=1;entryY=0.5;entryDx=0;entryDy=0;exitX=0.5;exitY=0;exitDx=0;exitDy=0;" edge="1" parent="1" source="yJ8dsvp7RU6qVgDbuZnN-25" target="yJ8dsvp7RU6qVgDbuZnN-12">
          <mxGeometry relative="1" as="geometry">
            <mxPoint x="420" y="120" as="targetPoint" />
            <Array as="points">
              <mxPoint x="450" y="135" />
              <mxPoint x="300" y="135" />
            </Array>
          </mxGeometry>
        </mxCell>
        <mxCell id="yJ8dsvp7RU6qVgDbuZnN-3" value="orquestador/api-gateway" style="shape=module;align=left;spacingLeft=20;align=center;verticalAlign=top;whiteSpace=wrap;html=1;" vertex="1" parent="1">
          <mxGeometry x="380" y="282" width="140" height="50" as="geometry" />
        </mxCell>
        <mxCell id="yJ8dsvp7RU6qVgDbuZnN-4" value="ms-customer" style="shape=module;align=left;spacingLeft=20;align=center;verticalAlign=top;whiteSpace=wrap;html=1;" vertex="1" parent="1">
          <mxGeometry x="20" y="204" width="140" height="50" as="geometry" />
        </mxCell>
        <mxCell id="yJ8dsvp7RU6qVgDbuZnN-6" value="ms-credtits" style="shape=module;align=left;spacingLeft=20;align=center;verticalAlign=top;whiteSpace=wrap;html=1;" vertex="1" parent="1">
          <mxGeometry x="194" y="467" width="140" height="50" as="geometry" />
        </mxCell>
        <mxCell id="yJ8dsvp7RU6qVgDbuZnN-8" value="ms-transactions" style="shape=module;align=left;spacingLeft=20;align=center;verticalAlign=top;whiteSpace=wrap;html=1;" vertex="1" parent="1">
          <mxGeometry x="194" y="332" width="140" height="50" as="geometry" />
        </mxCell>
        <mxCell id="yJ8dsvp7RU6qVgDbuZnN-9" value="ms-admin-server-data" style="shape=module;align=left;spacingLeft=20;align=center;verticalAlign=top;whiteSpace=wrap;html=1;" vertex="1" parent="1">
          <mxGeometry x="-320" y="110" width="140" height="50" as="geometry" />
        </mxCell>
        <mxCell id="yJ8dsvp7RU6qVgDbuZnN-10" value="BACKEND" style="text;strokeColor=none;align=center;fillColor=none;html=1;verticalAlign=middle;whiteSpace=wrap;rounded=0;fontStyle=5" vertex="1" parent="1">
          <mxGeometry x="70" y="50" width="130" height="30" as="geometry" />
        </mxCell>
        <mxCell id="yJ8dsvp7RU6qVgDbuZnN-11" style="edgeStyle=orthogonalEdgeStyle;rounded=0;orthogonalLoop=1;jettySize=auto;html=1;" edge="1" parent="1">
          <mxGeometry relative="1" as="geometry">
            <mxPoint x="10" y="370" as="targetPoint" />
            <Array as="points">
              <mxPoint x="-30" y="160" />
              <mxPoint x="-36" y="160" />
              <mxPoint x="-36" y="370" />
            </Array>
            <mxPoint x="-30" y="161" as="sourcePoint" />
          </mxGeometry>
        </mxCell>
        <mxCell id="yJ8dsvp7RU6qVgDbuZnN-29" value="" style="edgeStyle=orthogonalEdgeStyle;rounded=0;orthogonalLoop=1;jettySize=auto;html=1;" edge="1" parent="1" source="yJ8dsvp7RU6qVgDbuZnN-12" target="yJ8dsvp7RU6qVgDbuZnN-9">
          <mxGeometry relative="1" as="geometry" />
        </mxCell>
        <mxCell id="yJ8dsvp7RU6qVgDbuZnN-12" value="config-server" style="shape=module;align=left;spacingLeft=20;align=center;verticalAlign=top;whiteSpace=wrap;html=1;" vertex="1" parent="1">
          <mxGeometry x="-120" y="110" width="140" height="50" as="geometry" />
        </mxCell>
        <mxCell id="yJ8dsvp7RU6qVgDbuZnN-13" value="" style="image;html=1;image=img/lib/clip_art/general/Full_Folder_128x128.png" vertex="1" parent="1">
          <mxGeometry x="-310" y="140" width="50" height="40" as="geometry" />
        </mxCell>
        <mxCell id="yJ8dsvp7RU6qVgDbuZnN-14" value="" style="shape=image;verticalLabelPosition=bottom;labelBackgroundColor=default;verticalAlign=top;aspect=fixed;imageAspect=0;image=data:image/png,iVBORw0KGgoAAAANSUhEUgAAAPsAAAEACAYAAAB1UADIAAAABGdBTUEAALGPC/xhBQAAACBjSFJNAAB6JgAAgIQAAPoAAACA6AAAdTAAAOpgAAA6mAAAF3CculE8AAAAB3RJTUUH5QQXCCwDHDiC2wAAAAZiS0dEAAAAAAAA+UO7fwAAOmlJREFUeNrtnQd8U+X6x2UjKDgABw6Q1SQObLPKDG1SaKFJUUBGiqj3qle9evXvvbZw3Sju1VYKomW0TVtGQZZecQCKA8pGKKsgUCjQXbrH//cmpxjSk+SckLYn8fl9Pr9P2+Sck9OT93ve513PueIK0l9KM1aaBszIjOpAV4JE8nfYVxlfhmV0JUgkf4f9S2OKOTNiFl0JEsmfQc+M6jpjlemnB5aFrTYkqQbRFSGR/LZWjwye8aUpZ9JSw+awhZoP6YqQSH7bXjfNAexlgP1nwP47avdAuiokkj9BvjaKdczpAPpOuH7KsjFbAXs5/FFYkroNXSESyT/a6W1mrI7qA8hXwA3M5pVjfwfoDfBhwD5elzSYgCeRfB70laYbEL6/AcgL7WA/wsFeY1ioXqBPUvagq0Ui+S7obAJNL4A+G4AXNILOPH1lZAUHO/NBAG9E7d6WrhqJ5Iuwr4zqBtDfsq/RL8K+KrLBDvbasIXqJfBtdNVIJN+r1TtzoBc7gm6D3Vg/epG20g74QtTujyCc70xXj0TyLdDf5KvRG/3gKmNdRPKwHDvYmXcYFqrupM46EknqkLPhtbVRvQH6YgBd6gx0DvbasSnDsx1gr0Movwq+iq4miSRd0NvOWB01ACCnwTWuQHcBu9WGJM0CQ5KqK11VEkmSoJsCADGr0avdge4OdrjCkKT+D4C/jq4uiSQd0NmEmYEAeJFQ0AXAzpyPcD4WwPekq0wiSQH2NVG3Ad5UMaALhJ35pGGh+kkK6Umk1q/Vb5qxymQRC7oI2OsA+37YDOC70BUnkVoPdFajV4oF3Qr7l8aa8WmjdriBvRH4w/AkAN+JrjyJ1IKanDnm+ikrw98DsEWegM655r60kG0CYGeuB+yn4SgA356+ARKpBfTAitFdJq0IexU/S6aujNgpZJjNC7DbhuQWqsvgSJpDTyI1syZlhnUC5JPhw3ADavg81O7lLQU7B/xe/UJVMIBvR98IidQ8oXtb1OgqQP4DA73R0asiD7Uk7Fwb/hf9QvUw+lZIpOao1VeE9YKXAPAae9inrgzf28KwM1fBawwLNffQN0MiebOdvnx0R5i108vsQedC+RIPO+ouB3bmC/CisCR1f/qGSCQvaeJygxFgFziCzrk2etW43a0AO3Mp/CaAv56+JRLpMhSVqbtiYqZBhvD9gBPQmeumrYzIYUkkWwF21mFXAD9uSFJdqUsaTF8aieRRjb7C0Bugr2G1twvYWShfhVD+TGvAzgF/wrBQFa5fqKQhORLJg9D9GrTT32Lj6a5At8K+YnR59Mpxh1oLds67EM4r6JsjkcSAnmm4EjX6gwA5xx3oje32qZkRLCuNmDH3mgkZ+iwvws68HOH8NfQNkkjC2untAHoIAP6VtccFwt4wJXNM4YOrjH+IgL0WkcNeL8POMtb+G233jvRNkkhuNGm5oe8DK8LSAHC1UNBtofyYUoTyeWJgn7x8dLaXYa+3paXWjKNvkkRyVasv1V05fumov01Yrj8tBvSLvfK2UL6kFWG3PnSCTbhB+70ffaMkEo8i03VXmDJ0/eGs8UtDz0xaMfqMWOCnZIbnIpQ/1cqwM5cbFqo/GJ2kpfY7ieQoY7quA/y6KWNUQ1TGqLyJywyiYZ+8YvQFhPIsT3xdK8POfBrh/AxDkqoDfbskkj3sGboBpnRdPoMdrrl/mb5YbLudGaF87oNfGoslADus/haw30V56EmkxrZ6Jmr1DN1cDnSrEcofm7Q8LF98KD/mFEL5ImnArqlGOP8KgO9G3zKJZKvVRwDwc/awI5Q/P3G5ocyDjrpKhPL5ApJatATszMcBe4g+iWbXkahW72TK0KWw0N0edrgWofwpBq8HofxBwHxBIrAzfwPTM+RIf/mOuSkA+6QD6LZQPiPkAEL5UtGh/IoxpxHKV0oI9uqwJPVj9G2T/rIypel6Auo1cD0f7KjxyyYuD6vyIJSvRyh/3E2vfEvCzhbLHBqdpKFHQpP+guH7UutQ22OAOpcfdJsRyu91zE4jxFMzI3a7abe3KOzW7DZJ6g/HJGkpOy3pL1arZ+juBMzfuALd1lEXcnLSCvG1++QV1rnypRKCnfkwrKFvn/RXqtU7A/Z/AuZCd7AzT1xuOO5BKN+AUH6fxGCvNCzUfK5PUnanUkD6a9Tq6bq7AfFPQkC3hfKh2z2BfWpm+EGJwc58CO13E5UCkt8rMkPX1ZihewEQVwmFHaF8EUL5Cg9C+XKE8mclBnt12EL1YkOS6hYqDSS/1ri04b0j00d+KxT0xjH3ScvD9nlQu7NklDudwF43dXnEqVaAnfkY1e4kv1ZEypC2EalDHxhrGXbOmD4yRwzs9y0LZbDXi132ilD+jLMhuGmZEfWtBDt7dlycnp79TvJXhVuGdoa/jbAMKx6XNuI4IK4THMovDalBKF/oQShf4SyDDWBvaCXYbdNoF2oMNI2W5J81u2XowIjUYeWAvWFs2vBCY7quQHi7fdSFicsN+z0I5cvNK8fmSBB2NtHmU/g6Khkkf4T9ZQY65zy03c+ICOWrEcqf8WCCTd2UzHCWvaZYarDDuYBdY0hS0RJYkv9ojEXbHYDvsIO9EqE8G2evFgr8+KUhpQjlxSe1yByTP31VZI4EYW8IS1K/DVOCC5IftddTh4YB8BI72Fkof8KYISqUL0Aon+NhKF8oSdgXas6EJgX1oBJC8p8QPnVoIgCvtocdPmNMH1ksslf+ggcZbOqnrow4++CXxnMShL1Bn6R5kEoIyT9ATxnSH2DvdQCduR6h/DkxE2wQyp9GKJ/rQSh/GqH8aSnCDmfpk5S0QIbkFyH80wD7PA/szNkI5UtFhPL5E5Ybznow5l6NUL7UfiWchGAvMSSpDFRSSD4OenD3iNRhywB1nRPYC4zpVtjrRcyVZ+Pt5aLnyq+MOIZQvkCCsNeEJWmWjEnSdqISQ/LdEN4yRO8khL9ohPJHWHtcRCjvUTJKhPJ5COVLJQg7c7YhSXM3lRiST0qXObh9hGXoiwC6zBXs8AGeHHSuXIpQvkTMs+Aa58qbV41j7fYqCcKeb1io/heVGpJvhvBpwbcD9mVuQGcuj/wzZ7zAUF5/zLNQPnw/QvkyCcJeC6cjlL+KSg7J5zQGIXy4Zeg+AbA3jE0bsV0M7AjlD05aEeZJqumiB1cZayQIO/POsCT1cCo5JJ/SKIu2qz5F+/Lo1OA8x8k0vE4dliNmYQzr0Ju43FDkQa98A0L5vWw9uwRhL4NnGZJUtDiG5DsypGj7wsvDUrQnwlOHFgio3esi00f+ITKU3+lJMsopmeH7JQh7tRX2JPUiwxfK3lSCSD4jfYpmCHwUwFePSR1SBJhr3ME+Nm34PjGwR2WMOoFQvtKDUL6CDcFNyxxbN3qhtqoVoC6AzwLsc4YkdYHhC3W9/nNVsX6B6oj+M+WG0PlBIVSCSD5Sq6vaG1I0kxnocMPolOBswFzqBvb6CMvwIlO6rkQM8Ajlj3mSnw6h/HbzynGV4YuH5DZf6mhNPnwSQB8H0HmGz9VlALoCPgnnAOxj+vnKU6HzlPVwA+eKkHlBz+rmD6Yxd5IP1OrJmm6A/S0GOue8cMvQSmG98iMOigvlPUtGOSVzzB+AvTAieViOF8AuNCRpjgHqbMMXqiOGz1XnAXO1/jNVIXwmdL4yFz4PkMvtoHblxQCectSRfKK9fgu82Q72WoTyOYC51g3slWPTRpwSF8qHFHuSjJI9Q25qZsROsbAD6KPwHkC9F0CfAMzlcGXofFUxgC6AC0VA7cy/w2oqSSRfgF0GV9rBzkL5XTyr3pqE8mMtw0sQyp8XmYxyryePiMJ+heFLhuQ4yRHH2tKAWv0r2tO7APQfALkGBthWmJmr4LrLBJvPNajZzbq5g2mdO0nCIfwSbTt9svYRe9CZ9SmaUoTyVQJC+YJx6SOOilz2ut+TITj20MhxKcN2oqbORXt6O6D+Be3oPQCtmIOunoO53qFd3ezGOXwRMi+Q1rmTJN1e72BI1n7sCDszQvkdAmCv4jLY1IhMRlngCewRi4bubUmIRfhIyDxlPypRJOmG8MnaTgD7az7Yw1K02YJm01mGnzOm6842dzJKicPeEJqoHKGfq6T8dCTJttevhE/ywQ5XIJTPEwD8+cj0kWdFJqM8K3aCjeRhn6ecCeApqQVJqrCr+zsBvbFXfqcA2KsRyrOFMZUi5sqXiE1GKXXYEcavg2m8nSTZmv1+F7DXI5TPExbKDztmFLESjiWjnCBygo0P1OzFoxZQJx1JsrBrXncBO/OF8NShRwUAn49QvkxEKF+HUL5cTDJKH4C9QZ+opFVwJMnW7GvdwF6OUF5QRx1C+ZOAuEJEKJ+LUP6UP8GOMP5lKlUkqcK+1w3sdWGpwWyevJDps4eMGboykckozwkdc/cF2EMTg1ZQqSJJEHRVN8B8zg3sbAiuAKF8jgDYS43pI4tEJqNk4+0X/KZmTww6QCWLJDnpkzV3AuYCd7DDZQjl84SF8sP3i5lgg1A+R2gySp+o2ecpz+vnKm+i0kWSFuwp2vsAcokA2FkozxJaFLmDPdwy7KiYzLNcMspSIckofQT2EoTyEVS6SFLriX+G9bYLgJ2F8qcRyp8SMn0WoXyuyAw2OUKSUfoI7GUh85QPU+kiSa1zLg6uEgI765UfnRpcKCCDTcPYtGFbPUhGecFPYK8C7B9T6SJJrWZPA8Q1AmFvAOw5Lh4LZe88kXnlGxDKF7rrlfcR2KsB+xdUukhSq9l/Ewr6xQw2qUMLbSmp3CSjTBt5SGQGG7fJKH0EdubfqHSRJCOdRdsZ8G4TCTtb9nqWtcvdwF471tYrLyYZ5Ul3ySh9CPYs3fzB9PAIkjQUmqztI2BCDV8ony3g8VCeJqPM8RPY94UkBg6gUkaShPRLtArAu18s7HBxuGVomYBQ3uvJKH0I9v36uUoFlTKSNGBP1oQC3BwPYG8YY7HOlXfXK181Nm1ErshQvhShfLkfwH44ZG7gUCplJGnAnqKd4CJphbsx970CYPc0GeUeP4D9ZMg85f1UykhSgZ09FOKUJ7AzI5QvaKZklAecDcH5GOwTqZSRJCFDsvZfgDbfU9jHpA7JaqZklNUI5fMJdhLJW7CnaF8ROC/eWSj/h6DZdOKTUZZNXG444OOw5wL2KVTKSH4BO1scg1D+mMBklOdEJqM8xzfBxodgzwfs/6JSRvIX2Fkyyl0CYK/hklFWiExGedqHYS8B7K9QKSP5C+z1YSnBpUIeAOmtZJQEO4nkGewvXybsrN1eDtiF5KcrQCh/wYNklFUEO4l0mdKnaCd6Os5u/xCJ0anBRwXMpmPJKE9cbjJKH4K9CLDPpFJG8ifYG8JSg9lTY4oEJqO8IDKUP28/5k5DbyRSa8LOklFaBOWVL/MgGWW+fTJKwF42bsnwAwQ7iSQO9gjAevxyYbeF8kPy2bJWAckof7/MZJTlppSROQQ7iSQG9mRtIEDN9gLsbNlrvpAMNuGWYTkik1GWOSSjJNhJJNGwe77ElS+UPxOeOjRXyAMgjWkjT4lMRnnELhklwU4iiZUhReVR8gpns+kQyl8QmIxym6hlr0tDDtklo/QV2A+FzgvSUikjSQh40TnovJGMks2TrxaZjLKA65X3FdgpeQVJcrBvZjPhvAT8WYTyRQKTUR70MBmlr8C+V5+ovINKGElKPfIWMamkBSx7zROYjPKAyAw2p7hklL4C+zZd0uCOVMJIUqrZZ8OV3oI9THgyymJTuq5YZDLKoz4EO6WSJkmuZn9C6OOfBLpUYDLKC2KTUd63TL+bTbAxpow8JHHQa0PmKdOpdJGkBXuydgQALfIi7CwZ5X6ByShPiwvlQ0onLNNnRSwZmi31xz+FJgZ9QKWLJCmNStX2BqDnvQl7WIp2n8AMNiXGdJ2YpBbMJeFLhh2VOOwXULM/RqWLJMFQXvO7N2HnklGeF5iMMkck7OWAXept9qLQeUGURpokyU66xd6GXWQySuFj7umjLoQvHnpY6impdPMH96aSRZJizf4Pb8OOUP4EmxorIJQ/KyYZJbYtHZ0ULPUlrtlUqkiSVGiKOtDbsHPJKHMEJqM871+wB2VQqSJJE/Ylqm6GZM0pL8PeLMkofQH2kHnK2VSqSBJts2s6wcu9DDtLRlmG2r1CAPA5QpNRShj2/JDEoMMhiYEHR80LHEWliiTNmj1V3Q7t9meaod1+QWAyykKE8mUShL0ermOTZDjXWWvuxKAjoz4N2jbq08BfR8UH7dXFB52H6+BaOF/3aeDVVKpIkpQuaXAbfbI6yMsz6RqTUeYITEb5h5BQvhlhr4HLQxOVZTD7WRMyN6hk1NzAfbqEoF/gXQD5OFwJN7iwBaY58SRJ98jfBDjXeb12tyWjLBRQux8WkozSC7AD6qBSwFwQkshCb2VxyFxlHcAuQE2dPSohcA/APqiLDywCtPVuwG7qhMAn4XZUokgShl3bFXDOaoZQvkBgrzxLRlnoLhmlSNhRSwflIew+BaDPwMWj5gZVAuo8QH0UQB8GoKdEA+3c5QBdq5s7uA2VKJJ0Q3mLti2Aj/T2PHm2om506pACIckox9qSUdZ6BHti0DlAfQw19NGQT4NOoU1dDpcC6jOoqU8AxNNwkRfB5nHgb/BtVJpI0q/dkzVywPmdt2t3tNvZ1NlzApJRHhMMe6KyEGCzjrILcMOohKBSQJ3PdZYxqKubF2xef6KLC7qWShJJ8gpJ1XZD7f5mM4TypwUmo6wxpo086Q72sKTgHwE3wvCgC1wPeIMEzDru7gPs1F4n+UQo3wawRwPQQm/PpuOSUVZfbjJKBrvhC+1ObqirQUJmvfVBVIpIvhTKD2qOXnmRySjLncKepivTz9cckBjozPN1CYE3Ugki+U7tnjS4A/coZ2+PuQtNRlkbmT5ihzPYIy0jy0MT1TkSA70S4fuTug8HUwhP8i0ZkrU6wLm7GZa9ngHM7p7lXjc2bXiOj8G+RxcfGEolh+R7ofwSbXe03dO8mXVWRDJKeHiZs2WvEoSddRB+Dth7Uskh+Wrb/WEAmufl2r1MYDLKsnHpI/b7COxn4McQwrelUkPySYUsVt7QLKG8ZcjvAvLT1Yy1ZbDhg70iZK7qhIRg36hLuHcAlRiSL3fUtUHb/UW2mMWrvfIp2lOCZtNZhhUa00f+4Qj7uNQRDRIadivTxQW+rUugWp3k68BbtD0A6GGvJ6NMHZovZNkrQvkTTmCXig/oEgKVVFJIfiHU7s97fczdMmSfANhrEcqXOC57lRDsNfBiKiEk/2m7p2pv8nbtHpYazGr2CwKAP41QPleisJ9DCD+CSgjJn2r2DvDr3s5PF5465IAA2Isi00cWSRT2dboPB3egEkLyG+mXaFlHnRKAHvNqMsqUIULSVbEJNmfYfHgO9rqxySNOSgL2hMBwKh0k/6vdU9RXGVI0L3t3JVwwwnjr9Fl3wB+1S0ZZG5E8PFsCsH8H2CnPHMkfYVexcP4eQPojyxrrrQk2Y1KtY+5ua/dx6SNKuXXuUoC9BqCP0X16Lw23kfxTuqTB7fXJ6oe8+BDIKm6uvJAx9/2mDF2ZRGBfDd9EJYLk3+33ZE0fg23OfK2XQvlShPJ5Amr3XITyDPaa8CXD9rUi6Pmo1cfr5g5uT6WB5P/Ap2jvB6hHvJTBphC1+x8CYG/gJthUjV44ZFsrwp4KU4450l8E9iXa7gD1M5ZI0gvAVwP2QgHLXlkov8uUrqscnaRtLdiP6OIDJ1CtTvprAZ+qVelTNHu80VmHUD4vPHXoGQG1e8nYtOGHDZ9rtrXSMtYFuk8Ce9C3T/prddZZtO3Rfn8SsJZ7IZTPB+xC0lU1RKQOuxAyT7W/VZJTJASG6j6kfPCkv2ZnXTvAmuGF2r1+jC2vfLkA2GtDElUt3RtfpIsLnAnYaaiN9NfVqFRtH4Tz2V6o3XMErYQD7KPmqo62IOhsKe03aKdTLnjSX1sAldXu5ssdewfsxYC9mE2gcQW7MXVkGWrYihaE/SRqdcotRyJZw/kU9XWo3T++3Hx1o1ODjwNol89yn5467uCYhODiFgK9CqC/St8widTYWWd93LPmLgD7v8vslT/qrt3+lOWBrEmJ+sMtBPsaXcK9NFOORLqkdl+i7aBP1o4FtLsu5wGQ4RZru91pMsoX0/62Zcq8sJbooMvRxQeOgKlTjkRqAnyyphPC+WcuJyPt6JTgXa6SUb6a9vhPLQA7e+DDY7pP7u1E3yqJ5ESjFgV2MSRr3ga4JR6G8n+4eh7c3LTY3f/4/P4dzftwxsDXdAmDu+s+HExfKInkSoYU1U2o4Vd4ulgGofwxZ7DPS5u194Wk6dua8Smsi3UJgX3oWySRBAOvDYR/8zCU3+kM9i/SXsl9ddHju5ppOuxmOJi+PRJJbBs+RWsAvAc9COXPO3tE1JKM12vfT372sNcnzsQF7oJN9K2RSJ7U7snadvAUAHzUG8koJ1nCziRnzK6NS/lPiXdhDzwB0MeijU6r2UgkTxWarO6qT9Y8BYDPiUxGedAR9hmWyOzUjDdq51v+Wz3206HnvQR7uS7+3ofoUcsk0mVKlzT4itDFyu6GZM2/AXG+iFC+PMIytNAe9n+lTdtuyXizJintlQuT540+7B3QA/+hS7i3C31TJJKXgDekqHroUzQfiBiSa5KMclbaI9ssGXNqktNnl/7z80mXm5rqAvxfXVxQN10CDbGRSN5tw9uA/wggF4lIRnlxgs3raU/sTAPslvQ5FS8u/PuxywC9AJ6jSwjsRd8KidR8wPcE8B+ymltIMspwu2SUH6c/fyI946065neWPFOmT1BXeJQwMj7obYB+M30bJFLL1PAM+CqhySiNlpHliekzKwB6A3Ni6szCCYmhJ0QnoYgPegug96ZvgURqOeBv4EL6KiHJKCdbRp/8PP2lykbYF6W/lvfIgqgDImfHvQnQaRUbidTCsLcxpKhvcVfDI5Q/w5JRPpn2wP4lGa+XcbBXL13xfu7s1KfOGxI05QJhZzU6JYskkVoL+NBUDavhX3I2LMclo8x/Je2xI5aMOeUM9oyl75StWZ1wIH3V+6dnfG487X54Leg9gH4dXXESqRWls2iv0C28t5MhWfM04D4O1/HMlT/6QdpzJ7nOuYZly96tWLtmbvm6tYlV/01+tECfoKlykjsuVxcfOEOXMLgzYKeLTSJJAvqkwQBeOwlw73YEfnzKqNz49BeKuRC+duXKj3cD9AZmy6p3j5oXjM0dFa+sc2if/wLQ79fNHUxr0kkkSYb2ydrxAHyjPeyPWybkLMp4Ld8awme8Xbt29adHGmH/ev1nuQmZLx6ZMF9fMCo+qJ6bLJMBD6O57iSS5NvyWiW8kvXGh6UE186yPFKYljGn0hbCv3eKhe8M9PXr5hV/9+3i0xt/sJR9tnr2melJpv2ozd+EB9JVJJF8QPolWpbAUq5P0SwwpehOvJv2r4LGIbdVq+K2N9bq//v687Mbf0g9t2mjpeHnLctPpH8b/zLLMENXkETyqdpd1VafrL71/1KnP/9F+itHbb3wb5evXTO3lIO9asM3SYUAvQYu3vrb6q07stb1pStHIvmgWIrqJRlvqNIy3tpsDeGXv78XkNdaQ/j18/O//25JDqvVf9ycfmzrb18+vmP7+g501UgkH5XFMucqgJ7IeuERwmdzsNd//dWCEoB+nsG+aWPaDvgOulokko8rLf2tJ5cufTd7zZpPq7kQvhIhfK4NdEsd/NHmTRaaNEMi+boylr478stV8V8xyG298PMvfP998iFbCJ+Rv+XHZVN+2bSMQngSyde1enViT0D+DVerI4T/rAigszC+9pefM89nbVsXRleJRPIDff99UjtAngHXsTb7hg0L97NaffOm9PNbf/3y+PasdeF0lUgkP9G6tXPfA+gX1q+bV/fD96l/MNi3/LQ0L2vb2t8A+wi6QiSS38Ce+Ch87qv1nx3nOuUqEMIXAvRseChdIRLJT7R27dyRgD3nu2+XZHFj6/lbt64+uj1r/fdZWevupCtEIvmJ1q+e2+fr9Qt+RgjPxtbrf/pxaXHWtnWo2devz8paH0BXiETyI238IXUDA33TxjQWwp8A6A1wOmDvQ1eHRPIjAfRNDPbNm9LLt21dc8QK+/avPtm583/X09UhkfwK9tQUtvDlp80ZBQC9fOeO/+Xv3fP9qwcObKbcciSSn8G+ALBX/vrLqj2sVt+ze0PRweyfZh869DPBTiL5WRg/e/OmtIrtWWtP79j+Vdm+vT+cPXTw508IdhLJz7Rxo+XxLT8t28dqdRbCZx/4KQewxxHsJJKfafPmpY9mbVubDdhr9+zaUHjo4JYygp1E8kNt3bru7wC9goXw+/dtygboDYcP/fJJTs5v1BtPIvmTsrLWP85g37nj68qD2VtOA/SyY8ey5uTl/U6wk0h+CPuFPbu+PY5avfbokW2nT+fujzuXd4hyz5FI/gf7V6UHft+8k8H+x7GdBWfPHFoO2Gm6LInkT9q+fX2fXTs3fAvQy48c/jU/99Tvx87lHV5PsJNIfqijR7ddd+jgln/mHN2++uyZw7sA+6azeYfpQW4kkr+qsDCnU/7ZI0MA+z8Bez+6IiQSiUQikUgkEolEIpFIJBJJkBJmTr0iIXZau4QYc0ced4h/YXq7T2OjL3F87LT2TrZvsj+3Txsvnm+bBIfPZ+dzyfnFmNn7HYScn+3/M7edGzO5DZUGkn/DHjutU0KsORoFP4HHH8fHRD+REBs9w97xseb/4L14J/vY+zVuHx2OExAfG30z4LrqMs/3Fpzvv+w/B+cTc8n5xUTHAPiPBZzfR7b/zzwJv6vx++1xMebuMIFP8kPYY6LvQiHPB4gNzexC+Gt81kvwMAB284evzGgr8lw7Yd9HcZzSZji/Mhw7Cz/fwc3DgAjiaiodJD+r2c0TUMC3wYfgYhFwnINPOrhSwH51gOoYfi6Ii42OinvBfL1w2M3XoOZ+Dvv+Ch+GC6zH8z74pwH8S/g8mg1J8qs2+40IW4ejcEeikP8Nfh/eBdc4AYHVqh9gn+mAdZK98fqT8P/BifD38AkXQNVagY2JZmG4CufR3t25ol3dDmF8b3x2MD7PiP0ewjE+tMHp9HPe5c7J3m/Cy+ADLvZjN640fBbNiCT5p+Ji0WaNNY9Em/cgPwTm/8XNjL4VIbjzY8SYe8FoHpgjsP0c/NzPwc0HVRXA3YzPHAOLbivjc66LY5/Bc2y8dxI3kWt4bnBX4f07cKMZifN7Bb8fcXJu5fA89v9QySD5pVhbGgBm8IXIKPjJsKBsPKiJ28bHTMPNI/pu7PM29i9xGtrHRh9Hm3yMJ+eLfeW8sMdGb4Xbuji/Ngkx064G8JOxfbaTczuKm9X9VCpI/lvDx5if4QvlxcBud/Nog306w6MAzgkX7exjCTOnKcQOg2G/W5zA/qsr2P/c39wetbyZfb6TG9GniAauo1JB8lfYn/QW7Pb6eNb0W7H/dyx85wGrHnD+khAzdVBLws7V8qjhoxc5aW6w872HSgWJYBdZy38yM1qBGn6Dkxr+AhsjRzv86paE3dZfEf00N8rgeKyDqPn1VCpIBLtIoRZF2Gzt/XfSCRi9H3BFtDjsMeaJrO+Ar3mB44yhUkEi2D0QjnUt/LqTsf1qwD43ISa6ZwvDbsJ+OTzH2o7jDKVSQSLYPf2M2OhAHHOz09o91qyXCOyZaFb0p1IhMUWpFJ2ilPLbowb36URXQ+Kwx5g7wnOs7fSmgOGzzc8i5O/UUrAjmngc++U1HWs3zwLsHXl3Gh8c0DZKK+8UpZF3jdIoukepFQb8TMDf/7ikYGqxnUZ2dZQ6QIn35sBfYbv9UVrFRuz/BfbD6yi8g/s0GYrAvrCsPXwjjhGFfb7A/pvw8yy8Fr/HjdfIg/GzMwDwysT+KGVAG5Na1smkGtTTqJaPM6oUs00axRqTRn4APwvhk/CPcJxJrQjH69cZNbKOfOfv8nPwv5k0snZGtaKTSS3vit9vx3Gm4bjpRo18od12bfAZnXAN+uJ8nsG2m7BNEVzC/fwV2z8L944KGtDW4/97cJ8rTOqAdiatvAu+k0E43gz8Hm/SKtbj83+CN+L3Vfj5jkkrC8F7PYwaxZW47u14/rd2+H+6mYL6CxrKMWoV7XHsrvgf8bmyZ3HsRfj7J/gMXAj/gs9dhveewTYD8XcXVq58AXYOVL2LmWwW+LaWgB3bs+E3NnuwwmHYbS3+334OX6KsG8C8DaDJAGoEPBugATrFebzWANfB87jCA8gVPbFNGLyBe5/PpdhuTpRqUF97YKLu7dsOr9+BfR/FNjtd7F+Ec4iPUssHskLmcWFnNxaNrAtgUsIM8INwg3vLTwKMF02qAAVuFJ3cANXWqJJfj/364UZxN/a9H7C/jd+/x2uljcfEaxusEOAmgm3k8Kt4PdfNufxuUslC8Bmir0GkWtbGqA64AYBGAqSlcBncAFfDFdzvDpafBexL8LlR+PsueIDVGoUC7+GmJd9m1Mofc/O5HXDtbsF+U+E1cDn/Z11idm7p+Iww3JSvEXuTbQ3YUXNfg+Oynvl6ntl6W+G7mhv2hJlT22H7MfBuh+m8Wfhfw3mAkL8OuL6BTzoBrwSAvgRwUDvIRuD3BXit3AWojS4HsItR+/exfo5adj3gHY/XvxWwL3MV9k+GB6Gm8eiOH6lS3ArIn0VhPcDBUw0fhbfAX3O1+W44nwe0GhTu37D/JBynm9MaTB1wO0B+B9tvA+AlzsDFNt+alIO64ZiT8Pcm7lzc33jUivMAfqTY/x3gKAHdfEBUBNfBx+Gv8PrnAPpj2++KbLjKCYDF8B7OZ7ljXADs05xGEaqAq3HssfiM1XaQF8BZMIsivoe3wafgGp7PxM1P/gqA78sXXUgJdhus5gVOxt3P4b1hzQW7dbLPzOhu+IwQbLfS7v9l02TX4/+McFL7KVbCp1xAVwYn4abwNH7u5mp6Vuv/zHkbfJp73XHfAmsNr5GHw+/aRQuV8DH4AHyU+9sJ8Iq3cZPoKvaLAFwaOAnAVHDgnEJBWgAAJqBQyqI0AT1MStlAgDwS7z0Pf2dfE9v5EI4zAzUW73pmHE/D3Tiq3ICbhRvHC/h5zO61cq52P+div3oAvxnneZsI0IMBzo8cQHXsswHhg5FaxbUcmG2MqoHXAlwjtl0lsPZlPorrwNvhg+YGu5G9gG32cdsymDchnP8PPleDyuIOfI+3obmAm5DiIbw3n4O+3uEzCtn3hOZHb3YDkTLsAO0FF1Np9Z7Cbh1GizFPRHs7PCHGrG00wvVQNgUWkD+Ibdg03h12/+tBvP4+/sc+LkJd2R0AcQrAiodZu7vWATgG8TnOu+D3AeB0wK/hPAz7T8PradYooCmwuRzUFVb4tfJU+J/4PQr7jcFPI36yG8kqJ8DjRiQfJBL0oSjg39hqZyswZwDlrEiN7AYn4X5HvH8PCuEXToDfDeDGobbpyNOx1hWfNwLb/AdGO1hR6QRaVusXwGX4nB9QoOfAj2PfifBU3Ahew3u/Oanx0Y6X/1vQ/66RawHMBri2EVC8NpX9j7xNELXsHg74agfo2P4ldiH/HhznISe1eiec38tcLW4D3dYnMgSf28HJNUfTR2bmIg7Hm8oF7PsR3u8gadhjzNE49nknC28mu1sR5wL2Bm7lHesT+MXOLFz/A87niQb2sck1LmG/2OGmlfUExOGA6xfeNrhWsRDQDcd217IOJsdCg/f6WsNuVhvzQ4s2vtyENvRt2L69w/7t8d4A22fw7AtQRbRVb0VBs9jVtJWAaTFA7yHgJtGHiwYca+laeB18u4tr2Bn73gNon2Q3F94aWiP/He8/hu3uNKoGdWPX7WIIrBzY1cRuUmpFCg/wrHb+KkoZcJOb7/EqgPKFXWiO2lWejmvSzWWfg7WGVxx0AK6chfz4GQ5HooZWm4L68/ZfsJsWtjlvt+8+nG8kboTt3fR3tDeqEWlp5QU8wJfivCZLHPbhOHauE9j/xebVXwbsYs3+51PwD4gA3oiPnSZzN/wD6BSvO9TQtbgJZESpAm5x11sapRqEKEFxmAfYnwCsFkC3c15QFcwDbTeFJrBvEdj73AEw/Zvr0W4E5XSkWi54FpFJGdAXhXcfD6wVOHY0gOvgqvfbqJL3Asyf8+yPkF0WjP07u7j+7aJU8ruw7Xqe/XfhhjXUTQ94pAO0+aiN/+n2BqlVdMG2ax1gY230dwV0grJOvB0O4fhihOuCJpZEqQfhs+Uv8TYbNGgiDu7TRcKw3+N87bv5CdTsnTyFHbX0Nm7125+OMe+zTtxxDX29NXuNNVGGeSLa9x1cfHmKGLjwkp5xrSJWSPuJtQWtYX5T2DMB+u1u9w/s1w5g38/T/q+MCrzjGvc1s1yJArLZAZJ9qNkEd/aw/wHtYzNXm17ayaaRb4S7uxnmQw0tj+XpoNvqGBE5GybEts9xQ4L2x8jFZz/i6rwBzX+tIfCfwJxG7ThJYPg/k+vMswduCW5APVzcnNriMxOxXaXdPmdx03lCyP/aOGKC7ftxTQ9H4Etwg5vim7BHh7GkmB520DG4r4K7XOIYcxe8f3X8zGlD8PeT8G8c2HVOoC9iY/4JsVOv4l3HzwM7+/0FwbCoZToe2FcAdkEdTIgMVNj+iMP+NSgUGjdRSTvUyA87tLnrAM580T3ZGnknJ7U7A76/ANhjeGDfILzPQT4K++xxOEYBjvGs88/t3xXgzXfsUDNpA4KEjYvLJ3Nj4Pb7p+O63+z0OqkVbHx8i8M+u3EsUaMHrF2Pc3+Yp9+gBjeCxT4Ku8cddEKH3ubGTL4yPsZ8nzV0v3Sc/ZJUVXEzoyfHzYru6H3YtQE9Lwt2rSIA/l4s7ACsh3VSjENb2yiwY8sBtvY43kv8Q2jyJ5oddpVMxnX22R+jEjegN1xcdza2neE4lIWacfxlwL4gytWwo0Y+HducdNhnI85F9HPjjBrFMOy7n6d2347jdZMo7COctNlZD/3I5ob94ni7LQNumotcejsSYqf1bQbY0e5sCvt6+A5h+8vvwLZfioUdBY8B8oPjWDngnCF6Mo5K0Qa11kgn4+ULmxt2HKMf9tnI8/mfiIQ9HzXjUx7CzkLz11wP8Sle55mg8xXraRc/L0DWF7V7Bg/sh40aWbBEx9kf57LPOsL1M2C9s6Vg54AfxOXP42/Lx5gfbynYcXdWyJsVdrUiCLWDY+hdbVTJQzz5InG8frax+SbQfue6VpZ3w43ijVaAvYetY+wSUFhYvIh1XAposz/Fbg52+55kY/OuRh+4sXJHOJd5cr1xvCu5m4fj8U7gRjReirADyNe4NrMjXIvwWb1bEnYr8LHTxvLP6LN2GH7XUrCz8fu7mhN2hLhsbP00D+zhHsGukd9qtI17O06l3e2mCdCDG75radjb4/337MbXG70lElGP+34KRaLDbLrNJo2sv4vPu9E2xdU7sHORwvM8xzsJ2CdKDfYPX5nRia0qc5IhJvaTWdFXtjTsaMOzFFrHnWXXbQbY5WzMPa8VYB8Bn+cJ4x/3rGaX9wLwGTzQbnazH1tsk9LSsHNDbw9xs9LsYSlAeByD2r2ji6E3Ng/+Z4chu2ddrUvAe7diu+U8cH6NZlAvz26wike4RTKShz0u1sySRWbxQJULUMezKa0tDTv3/6c6C+Wbo2Zvy02hbVHYAZMKPtikg06teMdD2FFDy5eIhbY1YY/Syq4HHF9yY+T2wPwBT0e7uIv9kJh19Z1yYHfcDN6xWyhTAegWmgL7dXMTdvfmFtg4wr4Z7w306JprFZN5blYHcLw7pQQ7Axlh8d94OufqrTnbY823CzlOM8H+bgvC3jo1O2AKNDYdrqo3qeVfNc5UE6NIjew61G6f8UD7qVRh5zraDABkF8+c82JA/RE8BL8H4Ccb21YhGnrPrjYtxjVcJGQiC4sUsH0Cz+dk4xzGeQj7FOtimEuPty9KM6i/lGBHiH49jpnOA9RZ3AQeFd7B1yywP9KCYXzrtNkB5h3wSh5AcozKgNtFFzy1/EYAuqYJtCqFWcqwc9BMAiR7nSxjLeAWq2zmanxuaqxiO67fa6ag/tcIPU+cz4t2EcHFZgOO85wnN1jceB7l5uPbz+L7RkxCj+aGneWh43K+HWqSkio2enlCTHTfVob9QyfHXOs3sEeqAtiqq9k8gOQDtL97UPD6Yt8jjhNbTGqFQuqwcze/cVzv/HEnK9jYqrRj1qWuGpbMw7popaPITswJtok7TW4oaZFq55NxnAx3dsK+rzocqwI3rldEFvbmzUEXM20Aau/lDh1z9dyqM1ERTdzM6f28DTvOIdPJ0Ns//AZ2VpMAxAe51WUO69IVGdi/qzjYFYO4Jaj2wKbCV/kC7Nb2uFZ+A4B5mpv4Um2bwy6fC7PQ/e8I2SMBrBygXelJwTJqZAO47DNNx8a18rEiO+du4hbx2B+nyKSVaUUOh73L10PuDdhxnO7wLJ5kkyyN9EzWGy7yXEP5wYw+AHvSG38N34o4NssvIdbcdOVolEb+ssNCGJ+A3Va7K4J45sYzH4cfENxeVynaAs5HmsxgU8nvQ5OgnSewm9TCFvN4GfY7AUwqFxp/C6BGA55eeO9ab7Rd2TRX1LxvsBVqTae5yudGamQ3iogSgqypquyOY7SuqQjoJBKgRbxzxWOiv4Vv8vR/ZY9dTrA9dvkUD0yzhWaUdYhCJjhpX7Opr+08ON7DvA96jDG/gBq/Cx+snzksRPEl2DtaM5041MjcEtXVeF9QLzHLIQf/6jAnfoFRLbvR3YIgp7CjOdGiYbxW/iQXwnOLVFiNLvP6g/5wTA3XHHBcsXYW38VEZ+vZHW4aHbm58ZV2+5eZ1MJ74d3BjtfPw/0vA/bpTtauv4/3rvHkmC5gb0iYOXWgyGOxKbO/8xwrIyHGfEeTR1OxcVWAtdgBtGJ4ltC8YNaMJE1hz4bvFgh7P2y7hgf24YJqZbUsgEtcUdd0iariE/jWSBdprtgyX4D+uG39+cW15JvxmpLldRPQsdeLJZjkAbVM8DVUBgzgUlc5HiPB3Qo+/H+sp30DT7qpvSa17H4A2Avvd8fN4Cq4S2RwQEdjcEB7oavU+CII1MCzeLPdaORHAKwuSiXv6OKmxCIQBctqY5+TDsd8PlIjby+ywLPki985m0WG9y1xseYeQh6zjG3astowIXaaHDVjhkP6qVq8djo+dtoMvN8FsHt0A8G5POF8qao5Ie4F1+vhbUOA0Z1xDvfE2RbD1Do8ujkV59YfbmP/hbUdjy8foI0AWFt4YF0dpZb1H69x/qWxO/h4reI6NAMe49kf0YF8Avbv4Sx5IiC7Ikqt6IZtI7j0V5dmy9HIE9gyWRyjm7ueXoA5nsstV8fTdl7BMsvAvZq0+TXyG022fYvs2vtZ2Ha0kNoJ2/XE9qHwYd717KoAJba5ji/jDdfJiBuN7Hru/H/nOcZPiDDC8f7NJpXiar7su9y01/MuUkvtB1xrANln8HvwE/ibZYzR4fhq/GTJJe/A6zfhxtJVSK86G6pDEyGDN5+dRs7ScD2IY97GOuEcrhlLthEIr3RYIvvvSK3rvhF7fRob3RGQ94YnuXnmOWp489dsnTfguAfb9wGwN6I9ew2O0Q3ujlrwNrwuwzYskeM7Dser49rEX8XNjA4FbKJDbXzGlfEvmHvhZhGAc9ni4lxLcHOKwbncCeOczNdx59gt/oXp1+M8ce7RSvi/Divv6q1ppWPMiYB8gGPYPQgQTcLPFznQa/hhteaqewrQjQOUN/zZxpd1x2vD8d7fbGvZ5cedZKphoXwctn0QVl1yDmprlhwj/BqX+oo/gSVLNa3FNiw8VMv7u8qEwgHzm5MUUSzpJBtDnwiHwOFoU5tRMBfh9+LGSAAFeB1qaqO7ueXY9k7476zmhfc6zyUnZ/MAPoCfBJQj0Ka9motG2uBzBrJj4PUP8XMH1/TgOw67kSTDL7FjNLlhWGG1JnisF5hXzj70ZrXz7ywyYEtLcT1i4BCjOuBad1FJlHW5qzydZyiucY7+lzj+UzAbJQiB78P2s+xy1rFt9uFzn8X/IChdNQp1V7a6DH6KS9+cLzCrS50VkJjo9YA6Cb+/lRAb/Rr8ZrwtgeMeniQR52zZZM3PAtLeHtTivbB/BPwcPnceYNzufB77JU+YOQSvwu8fcOf4Gv7+CPuv4+k/YAknf8BN4mlEJj34wuaXneSOc+bzDHi7/YO5xJO1AvdnN5N0h05BE0A/LeIcWMbbh5zVkHYh9UguRVWeE3CqueG1M3b56ho4YOcARkGLd7iltZXC0lRf7ANYi/MbxJ1nB/hVMfvbjqH40knP9t/ZAhLRsPMPz+0D8K+bVINudtVfYUtiGXALPnuO7YbRZI5+Y167c/ARuyQb9bYpsYokXIOxLKefwJ7nNqiR1S5yt3vDDB6WHYb15P+DrSzzqL0/c2oH3CSm8TzIwVs+A3+Lz3gJ53iXqzbyE1ybutFZ3JLU1U6tCVDagTqSW39uf4xvePbbyNXuB7DPvEvPQWbA61u5fffC37n8fJvdrhe2LlVVKW5BaD4dTubyxlfxp41WHAeA61Cw/4uoIETMUJ1tnJo3USWfa3EuZ1HLx5lUsltt7Wy2fl7xtEjYzwCOD5w0KboY1dbQ/HsXqaLFuAS18Aew255x3CC74TrqAe9soy19dIXzYyq2YZsFOK4J7fNbxOTHRxjbEQX7aW9Cg9D+RJytVv+Sdbyx2XCAPASh/k3uss64GfvugePFee9czWfjbMknV+D3t1DTT8W1uBvu4KatyYZiFEo732NL/sg6ypxYOaCzHezdWefbJcdgud6b7KeQw0Hc+/0cCufVeP1ebv9AWwILF59vs+A2HcsbZ1LJbwHIKpMtk+tz8POcAZn8PryuRUEdYFQN7CI2hTFuDizJJWvzhgmwHp81DOfTF+fV8eJNCU0jgftbzTLo4nydzgw0BfVnIxM6a5Ry+bBbp9KirKgFD19qFd3ZGL4tZGdJLnCtG217Mk0oQL8H23k0HIaC3RZmk1LCRDocgLCJN8/D0+3fA9jB1ue4xZj74WZyHZst540RCxybrZC7y815meHJwv4H8zCc57043764EXXHeba7gsRb23eIUsquBGg2qwI6X85TZyT7fwb17wmoLFzNylJpx5vUMj1eC7j4pBer5cPx3t+MWvmb1iW9TRfR/DnurZHP9+hctAEd2Hr1i1YP7HA5T325HKGGbgNA2FLQK+EOUvm+2Lmw0QQilCQOLEQp1qfZ2NrcP6D2ZE+HaWdUDmzjGLVYh840sjaAvS1gb29iz2bTKpbwdrRpFMfoCpNIEhAbrkJNzUYhsrkaehteC/LgON0A/Ms87e18usokUuuD3h2Asl74HLtFJA97ejzsGwj/6rh8la40idTKoTtAZCvQDl3SoeYi57t72OU3Oy5MAfyf0dUmkVqzVtfIbkL4vsBxxdhl3kB64JgJDrPh7qerTSK1olALD+Sehe4wVCY+pbPdMW+xz1ZrZI931ihuoKtNIrVuzd4PcGY2Tfwgn+7pMVGLD2fr0u164h81qRU0NEQitWqb/d6+HQDn/3FDbZckkQCgQZFq4Y8+ZvP0I1ka7T/b61W4acyHe7LFSiQSqbVDeY18JMsj1+RJrBprbrlJJgaru6fwsnXlGvnd1gk43HPSAX06PICuMIkkldpdpbiarYSz5YlvMvvtlLWzTSOfjBpayZ6aGhkccIPVWtnNeG0QtmE3iyfg37h9zmM71OiKO+nqkkjSa7v3Mdp60EudTHkt4J66ugLwf2GztRNuDbfUtIqbjMNSUT8XqVX0pqtKIkk1nNfK2QMSY+BcDxa75CCE/wS1+XD2LDe6miSS1EN6bcDVgD0YfpF7rFOJC8CLjCzfnVb+HCDXRqplPekKkki+BTxLBtkFAN/AHtAYpZGFGTWyh1HzvwW/H6WVTYbHmtSyAYC9F7bp7GkeOpJv6P8Be4IG54ZeBpEAAAAldEVYdGRhdGU6Y3JlYXRlADIwMjEtMDQtMjNUMDg6NDQ6MDMrMDA6MDDd8THtAAAAJXRFWHRkYXRlOm1vZGlmeQAyMDIxLTA0LTIzVDA4OjQ0OjAzKzAwOjAwrKyJUQAAAABJRU5ErkJggg==;" vertex="1" parent="1">
          <mxGeometry x="-176.96" y="150" width="78.44" height="80" as="geometry" />
        </mxCell>
        <mxCell id="yJ8dsvp7RU6qVgDbuZnN-15" value="" style="shape=image;verticalLabelPosition=bottom;labelBackgroundColor=default;verticalAlign=top;aspect=fixed;imageAspect=0;image=data:image/png,iVBORw0KGgoAAAANSUhEUgAAAPsAAAEACAYAAAB1UADIAAAABGdBTUEAALGPC/xhBQAAACBjSFJNAAB6JgAAgIQAAPoAAACA6AAAdTAAAOpgAAA6mAAAF3CculE8AAAAB3RJTUUH5QQXCCwDHDiC2wAAAAZiS0dEAAAAAAAA+UO7fwAAOmlJREFUeNrtnQd8U+X6x2UjKDgABw6Q1SQObLPKDG1SaKFJUUBGiqj3qle9evXvvbZw3Sju1VYKomW0TVtGQZZecQCKA8pGKKsgUCjQXbrH//cmpxjSk+SckLYn8fl9Pr9P2+Sck9OT93ve513PueIK0l9KM1aaBszIjOpAV4JE8nfYVxlfhmV0JUgkf4f9S2OKOTNiFl0JEsmfQc+M6jpjlemnB5aFrTYkqQbRFSGR/LZWjwye8aUpZ9JSw+awhZoP6YqQSH7bXjfNAexlgP1nwP47avdAuiokkj9BvjaKdczpAPpOuH7KsjFbAXs5/FFYkroNXSESyT/a6W1mrI7qA8hXwA3M5pVjfwfoDfBhwD5elzSYgCeRfB70laYbEL6/AcgL7WA/wsFeY1ioXqBPUvagq0Ui+S7obAJNL4A+G4AXNILOPH1lZAUHO/NBAG9E7d6WrhqJ5Iuwr4zqBtDfsq/RL8K+KrLBDvbasIXqJfBtdNVIJN+r1TtzoBc7gm6D3Vg/epG20g74QtTujyCc70xXj0TyLdDf5KvRG/3gKmNdRPKwHDvYmXcYFqrupM46EknqkLPhtbVRvQH6YgBd6gx0DvbasSnDsx1gr0Movwq+iq4miSRd0NvOWB01ACCnwTWuQHcBu9WGJM0CQ5KqK11VEkmSoJsCADGr0avdge4OdrjCkKT+D4C/jq4uiSQd0NmEmYEAeJFQ0AXAzpyPcD4WwPekq0wiSQH2NVG3Ad5UMaALhJ35pGGh+kkK6Umk1q/Vb5qxymQRC7oI2OsA+37YDOC70BUnkVoPdFajV4oF3Qr7l8aa8WmjdriBvRH4w/AkAN+JrjyJ1IKanDnm+ikrw98DsEWegM655r60kG0CYGeuB+yn4SgA356+ARKpBfTAitFdJq0IexU/S6aujNgpZJjNC7DbhuQWqsvgSJpDTyI1syZlhnUC5JPhw3ADavg81O7lLQU7B/xe/UJVMIBvR98IidQ8oXtb1OgqQP4DA73R0asiD7Uk7Fwb/hf9QvUw+lZIpOao1VeE9YKXAPAae9inrgzf28KwM1fBawwLNffQN0MiebOdvnx0R5i108vsQedC+RIPO+ouB3bmC/CisCR1f/qGSCQvaeJygxFgFziCzrk2etW43a0AO3Mp/CaAv56+JRLpMhSVqbtiYqZBhvD9gBPQmeumrYzIYUkkWwF21mFXAD9uSFJdqUsaTF8aieRRjb7C0Bugr2G1twvYWShfhVD+TGvAzgF/wrBQFa5fqKQhORLJg9D9GrTT32Lj6a5At8K+YnR59Mpxh1oLds67EM4r6JsjkcSAnmm4EjX6gwA5xx3oje32qZkRLCuNmDH3mgkZ+iwvws68HOH8NfQNkkjC2untAHoIAP6VtccFwt4wJXNM4YOrjH+IgL0WkcNeL8POMtb+G233jvRNkkhuNGm5oe8DK8LSAHC1UNBtofyYUoTyeWJgn7x8dLaXYa+3paXWjKNvkkRyVasv1V05fumov01Yrj8tBvSLvfK2UL6kFWG3PnSCTbhB+70ffaMkEo8i03VXmDJ0/eGs8UtDz0xaMfqMWOCnZIbnIpQ/1cqwM5cbFqo/GJ2kpfY7ieQoY7quA/y6KWNUQ1TGqLyJywyiYZ+8YvQFhPIsT3xdK8POfBrh/AxDkqoDfbskkj3sGboBpnRdPoMdrrl/mb5YbLudGaF87oNfGoslADus/haw30V56EmkxrZ6Jmr1DN1cDnSrEcofm7Q8LF98KD/mFEL5ImnArqlGOP8KgO9G3zKJZKvVRwDwc/awI5Q/P3G5ocyDjrpKhPL5ApJatATszMcBe4g+iWbXkahW72TK0KWw0N0edrgWofwpBq8HofxBwHxBIrAzfwPTM+RIf/mOuSkA+6QD6LZQPiPkAEL5UtGh/IoxpxHKV0oI9uqwJPVj9G2T/rIypel6Auo1cD0f7KjxyyYuD6vyIJSvRyh/3E2vfEvCzhbLHBqdpKFHQpP+guH7UutQ22OAOpcfdJsRyu91zE4jxFMzI3a7abe3KOzW7DZJ6g/HJGkpOy3pL1arZ+juBMzfuALd1lEXcnLSCvG1++QV1rnypRKCnfkwrKFvn/RXqtU7A/Z/AuZCd7AzT1xuOO5BKN+AUH6fxGCvNCzUfK5PUnanUkD6a9Tq6bq7AfFPQkC3hfKh2z2BfWpm+EGJwc58CO13E5UCkt8rMkPX1ZihewEQVwmFHaF8EUL5Cg9C+XKE8mclBnt12EL1YkOS6hYqDSS/1ri04b0j00d+KxT0xjH3ScvD9nlQu7NklDudwF43dXnEqVaAnfkY1e4kv1ZEypC2EalDHxhrGXbOmD4yRwzs9y0LZbDXi132ilD+jLMhuGmZEfWtBDt7dlycnp79TvJXhVuGdoa/jbAMKx6XNuI4IK4THMovDalBKF/oQShf4SyDDWBvaCXYbdNoF2oMNI2W5J81u2XowIjUYeWAvWFs2vBCY7quQHi7fdSFicsN+z0I5cvNK8fmSBB2NtHmU/g6Khkkf4T9ZQY65zy03c+ICOWrEcqf8WCCTd2UzHCWvaZYarDDuYBdY0hS0RJYkv9ojEXbHYDvsIO9EqE8G2evFgr8+KUhpQjlxSe1yByTP31VZI4EYW8IS1K/DVOCC5IftddTh4YB8BI72Fkof8KYISqUL0Aon+NhKF8oSdgXas6EJgX1oBJC8p8QPnVoIgCvtocdPmNMH1ksslf+ggcZbOqnrow4++CXxnMShL1Bn6R5kEoIyT9ATxnSH2DvdQCduR6h/DkxE2wQyp9GKJ/rQSh/GqH8aSnCDmfpk5S0QIbkFyH80wD7PA/szNkI5UtFhPL5E5Ybznow5l6NUL7UfiWchGAvMSSpDFRSSD4OenD3iNRhywB1nRPYC4zpVtjrRcyVZ+Pt5aLnyq+MOIZQvkCCsNeEJWmWjEnSdqISQ/LdEN4yRO8khL9ohPJHWHtcRCjvUTJKhPJ5COVLJQg7c7YhSXM3lRiST0qXObh9hGXoiwC6zBXs8AGeHHSuXIpQvkTMs+Aa58qbV41j7fYqCcKeb1io/heVGpJvhvBpwbcD9mVuQGcuj/wzZ7zAUF5/zLNQPnw/QvkyCcJeC6cjlL+KSg7J5zQGIXy4Zeg+AbA3jE0bsV0M7AjlD05aEeZJqumiB1cZayQIO/POsCT1cCo5JJ/SKIu2qz5F+/Lo1OA8x8k0vE4dliNmYQzr0Ju43FDkQa98A0L5vWw9uwRhL4NnGZJUtDiG5DsypGj7wsvDUrQnwlOHFgio3esi00f+ITKU3+lJMsopmeH7JQh7tRX2JPUiwxfK3lSCSD4jfYpmCHwUwFePSR1SBJhr3ME+Nm34PjGwR2WMOoFQvtKDUL6CDcFNyxxbN3qhtqoVoC6AzwLsc4YkdYHhC3W9/nNVsX6B6oj+M+WG0PlBIVSCSD5Sq6vaG1I0kxnocMPolOBswFzqBvb6CMvwIlO6rkQM8Ajlj3mSnw6h/HbzynGV4YuH5DZf6mhNPnwSQB8H0HmGz9VlALoCPgnnAOxj+vnKU6HzlPVwA+eKkHlBz+rmD6Yxd5IP1OrJmm6A/S0GOue8cMvQSmG98iMOigvlPUtGOSVzzB+AvTAieViOF8AuNCRpjgHqbMMXqiOGz1XnAXO1/jNVIXwmdL4yFz4PkMvtoHblxQCectSRfKK9fgu82Q72WoTyOYC51g3slWPTRpwSF8qHFHuSjJI9Q25qZsROsbAD6KPwHkC9F0CfAMzlcGXofFUxgC6AC0VA7cy/w2oqSSRfgF0GV9rBzkL5XTyr3pqE8mMtw0sQyp8XmYxyryePiMJ+heFLhuQ4yRHH2tKAWv0r2tO7APQfALkGBthWmJmr4LrLBJvPNajZzbq5g2mdO0nCIfwSbTt9svYRe9CZ9SmaUoTyVQJC+YJx6SOOilz2ut+TITj20MhxKcN2oqbORXt6O6D+Be3oPQCtmIOunoO53qFd3ezGOXwRMi+Q1rmTJN1e72BI1n7sCDszQvkdAmCv4jLY1IhMRlngCewRi4bubUmIRfhIyDxlPypRJOmG8MnaTgD7az7Yw1K02YJm01mGnzOm6842dzJKicPeEJqoHKGfq6T8dCTJttevhE/ywQ5XIJTPEwD8+cj0kWdFJqM8K3aCjeRhn6ecCeApqQVJqrCr+zsBvbFXfqcA2KsRyrOFMZUi5sqXiE1GKXXYEcavg2m8nSTZmv1+F7DXI5TPExbKDztmFLESjiWjnCBygo0P1OzFoxZQJx1JsrBrXncBO/OF8NShRwUAn49QvkxEKF+HUL5cTDJKH4C9QZ+opFVwJMnW7GvdwF6OUF5QRx1C+ZOAuEJEKJ+LUP6UP8GOMP5lKlUkqcK+1w3sdWGpwWyevJDps4eMGboykckozwkdc/cF2EMTg1ZQqSJJEHRVN8B8zg3sbAiuAKF8jgDYS43pI4tEJqNk4+0X/KZmTww6QCWLJDnpkzV3AuYCd7DDZQjl84SF8sP3i5lgg1A+R2gySp+o2ecpz+vnKm+i0kWSFuwp2vsAcokA2FkozxJaFLmDPdwy7KiYzLNcMspSIckofQT2EoTyEVS6SFLriX+G9bYLgJ2F8qcRyp8SMn0WoXyuyAw2OUKSUfoI7GUh85QPU+kiSa1zLg6uEgI765UfnRpcKCCDTcPYtGFbPUhGecFPYK8C7B9T6SJJrWZPA8Q1AmFvAOw5Lh4LZe88kXnlGxDKF7rrlfcR2KsB+xdUukhSq9l/Ewr6xQw2qUMLbSmp3CSjTBt5SGQGG7fJKH0EdubfqHSRJCOdRdsZ8G4TCTtb9nqWtcvdwF471tYrLyYZ5Ul3ySh9CPYs3fzB9PAIkjQUmqztI2BCDV8ony3g8VCeJqPM8RPY94UkBg6gUkaShPRLtArAu18s7HBxuGVomYBQ3uvJKH0I9v36uUoFlTKSNGBP1oQC3BwPYG8YY7HOlXfXK181Nm1ErshQvhShfLkfwH44ZG7gUCplJGnAnqKd4CJphbsx970CYPc0GeUeP4D9ZMg85f1UykhSgZ09FOKUJ7AzI5QvaKZklAecDcH5GOwTqZSRJCFDsvZfgDbfU9jHpA7JaqZklNUI5fMJdhLJW7CnaF8ROC/eWSj/h6DZdOKTUZZNXG444OOw5wL2KVTKSH4BO1scg1D+mMBklOdEJqM8xzfBxodgzwfs/6JSRvIX2Fkyyl0CYK/hklFWiExGedqHYS8B7K9QKSP5C+z1YSnBpUIeAOmtZJQEO4nkGewvXybsrN1eDtiF5KcrQCh/wYNklFUEO4l0mdKnaCd6Os5u/xCJ0anBRwXMpmPJKE9cbjJKH4K9CLDPpFJG8ifYG8JSg9lTY4oEJqO8IDKUP28/5k5DbyRSa8LOklFaBOWVL/MgGWW+fTJKwF42bsnwAwQ7iSQO9gjAevxyYbeF8kPy2bJWAckof7/MZJTlppSROQQ7iSQG9mRtIEDN9gLsbNlrvpAMNuGWYTkik1GWOSSjJNhJJNGwe77ElS+UPxOeOjRXyAMgjWkjT4lMRnnELhklwU4iiZUhReVR8gpns+kQyl8QmIxym6hlr0tDDtklo/QV2A+FzgvSUikjSQh40TnovJGMks2TrxaZjLKA65X3FdgpeQVJcrBvZjPhvAT8WYTyRQKTUR70MBmlr8C+V5+ovINKGElKPfIWMamkBSx7zROYjPKAyAw2p7hklL4C+zZd0uCOVMJIUqrZZ8OV3oI9THgyymJTuq5YZDLKoz4EO6WSJkmuZn9C6OOfBLpUYDLKC2KTUd63TL+bTbAxpow8JHHQa0PmKdOpdJGkBXuydgQALfIi7CwZ5X6ByShPiwvlQ0onLNNnRSwZmi31xz+FJgZ9QKWLJCmNStX2BqDnvQl7WIp2n8AMNiXGdJ2YpBbMJeFLhh2VOOwXULM/RqWLJMFQXvO7N2HnklGeF5iMMkck7OWAXept9qLQeUGURpokyU66xd6GXWQySuFj7umjLoQvHnpY6impdPMH96aSRZJizf4Pb8OOUP4EmxorIJQ/KyYZJbYtHZ0ULPUlrtlUqkiSVGiKOtDbsHPJKHMEJqM871+wB2VQqSJJE/Ylqm6GZM0pL8PeLMkofQH2kHnK2VSqSBJts2s6wcu9DDtLRlmG2r1CAPA5QpNRShj2/JDEoMMhiYEHR80LHEWliiTNmj1V3Q7t9meaod1+QWAyykKE8mUShL0ermOTZDjXWWvuxKAjoz4N2jbq08BfR8UH7dXFB52H6+BaOF/3aeDVVKpIkpQuaXAbfbI6yMsz6RqTUeYITEb5h5BQvhlhr4HLQxOVZTD7WRMyN6hk1NzAfbqEoF/gXQD5OFwJN7iwBaY58SRJ98jfBDjXeb12tyWjLBRQux8WkozSC7AD6qBSwFwQkshCb2VxyFxlHcAuQE2dPSohcA/APqiLDywCtPVuwG7qhMAn4XZUokgShl3bFXDOaoZQvkBgrzxLRlnoLhmlSNhRSwflIew+BaDPwMWj5gZVAuo8QH0UQB8GoKdEA+3c5QBdq5s7uA2VKJJ0Q3mLti2Aj/T2PHm2om506pACIckox9qSUdZ6BHti0DlAfQw19NGQT4NOoU1dDpcC6jOoqU8AxNNwkRfB5nHgb/BtVJpI0q/dkzVywPmdt2t3tNvZ1NlzApJRHhMMe6KyEGCzjrILcMOohKBSQJ3PdZYxqKubF2xef6KLC7qWShJJ8gpJ1XZD7f5mM4TypwUmo6wxpo086Q72sKTgHwE3wvCgC1wPeIMEzDru7gPs1F4n+UQo3wawRwPQQm/PpuOSUVZfbjJKBrvhC+1ObqirQUJmvfVBVIpIvhTKD2qOXnmRySjLncKepivTz9cckBjozPN1CYE3Ugki+U7tnjS4A/coZ2+PuQtNRlkbmT5ihzPYIy0jy0MT1TkSA70S4fuTug8HUwhP8i0ZkrU6wLm7GZa9ngHM7p7lXjc2bXiOj8G+RxcfGEolh+R7ofwSbXe03dO8mXVWRDJKeHiZs2WvEoSddRB+Dth7Uskh+Wrb/WEAmufl2r1MYDLKsnHpI/b7COxn4McQwrelUkPySYUsVt7QLKG8ZcjvAvLT1Yy1ZbDhg70iZK7qhIRg36hLuHcAlRiSL3fUtUHb/UW2mMWrvfIp2lOCZtNZhhUa00f+4Qj7uNQRDRIadivTxQW+rUugWp3k68BbtD0A6GGvJ6NMHZovZNkrQvkTTmCXig/oEgKVVFJIfiHU7s97fczdMmSfANhrEcqXOC57lRDsNfBiKiEk/2m7p2pv8nbtHpYazGr2CwKAP41QPleisJ9DCD+CSgjJn2r2DvDr3s5PF5465IAA2Isi00cWSRT2dboPB3egEkLyG+mXaFlHnRKAHvNqMsqUIULSVbEJNmfYfHgO9rqxySNOSgL2hMBwKh0k/6vdU9RXGVI0L3t3JVwwwnjr9Fl3wB+1S0ZZG5E8PFsCsH8H2CnPHMkfYVexcP4eQPojyxrrrQk2Y1KtY+5ua/dx6SNKuXXuUoC9BqCP0X16Lw23kfxTuqTB7fXJ6oe8+BDIKm6uvJAx9/2mDF2ZRGBfDd9EJYLk3+33ZE0fg23OfK2XQvlShPJ5Amr3XITyDPaa8CXD9rUi6Pmo1cfr5g5uT6WB5P/Ap2jvB6hHvJTBphC1+x8CYG/gJthUjV44ZFsrwp4KU4450l8E9iXa7gD1M5ZI0gvAVwP2QgHLXlkov8uUrqscnaRtLdiP6OIDJ1CtTvprAZ+qVelTNHu80VmHUD4vPHXoGQG1e8nYtOGHDZ9rtrXSMtYFuk8Ce9C3T/prddZZtO3Rfn8SsJZ7IZTPB+xC0lU1RKQOuxAyT7W/VZJTJASG6j6kfPCkv2ZnXTvAmuGF2r1+jC2vfLkA2GtDElUt3RtfpIsLnAnYaaiN9NfVqFRtH4Tz2V6o3XMErYQD7KPmqo62IOhsKe03aKdTLnjSX1sAldXu5ssdewfsxYC9mE2gcQW7MXVkGWrYihaE/SRqdcotRyJZw/kU9XWo3T++3Hx1o1ODjwNol89yn5467uCYhODiFgK9CqC/St8widTYWWd93LPmLgD7v8vslT/qrt3+lOWBrEmJ+sMtBPsaXcK9NFOORLqkdl+i7aBP1o4FtLsu5wGQ4RZru91pMsoX0/62Zcq8sJbooMvRxQeOgKlTjkRqAnyyphPC+WcuJyPt6JTgXa6SUb6a9vhPLQA7e+DDY7pP7u1E3yqJ5ESjFgV2MSRr3ga4JR6G8n+4eh7c3LTY3f/4/P4dzftwxsDXdAmDu+s+HExfKInkSoYU1U2o4Vd4ulgGofwxZ7DPS5u194Wk6dua8Smsi3UJgX3oWySRBAOvDYR/8zCU3+kM9i/SXsl9ddHju5ppOuxmOJi+PRJJbBs+RWsAvAc9COXPO3tE1JKM12vfT372sNcnzsQF7oJN9K2RSJ7U7snadvAUAHzUG8koJ1nCziRnzK6NS/lPiXdhDzwB0MeijU6r2UgkTxWarO6qT9Y8BYDPiUxGedAR9hmWyOzUjDdq51v+Wz3206HnvQR7uS7+3ofoUcsk0mVKlzT4itDFyu6GZM2/AXG+iFC+PMIytNAe9n+lTdtuyXizJintlQuT540+7B3QA/+hS7i3C31TJJKXgDekqHroUzQfiBiSa5KMclbaI9ssGXNqktNnl/7z80mXm5rqAvxfXVxQN10CDbGRSN5tw9uA/wggF4lIRnlxgs3raU/sTAPslvQ5FS8u/PuxywC9AJ6jSwjsRd8KidR8wPcE8B+ymltIMspwu2SUH6c/fyI946065neWPFOmT1BXeJQwMj7obYB+M30bJFLL1PAM+CqhySiNlpHliekzKwB6A3Ni6szCCYmhJ0QnoYgPegug96ZvgURqOeBv4EL6KiHJKCdbRp/8PP2lykbYF6W/lvfIgqgDImfHvQnQaRUbidTCsLcxpKhvcVfDI5Q/w5JRPpn2wP4lGa+XcbBXL13xfu7s1KfOGxI05QJhZzU6JYskkVoL+NBUDavhX3I2LMclo8x/Je2xI5aMOeUM9oyl75StWZ1wIH3V+6dnfG487X54Leg9gH4dXXESqRWls2iv0C28t5MhWfM04D4O1/HMlT/6QdpzJ7nOuYZly96tWLtmbvm6tYlV/01+tECfoKlykjsuVxcfOEOXMLgzYKeLTSJJAvqkwQBeOwlw73YEfnzKqNz49BeKuRC+duXKj3cD9AZmy6p3j5oXjM0dFa+sc2if/wLQ79fNHUxr0kkkSYb2ydrxAHyjPeyPWybkLMp4Ld8awme8Xbt29adHGmH/ev1nuQmZLx6ZMF9fMCo+qJ6bLJMBD6O57iSS5NvyWiW8kvXGh6UE186yPFKYljGn0hbCv3eKhe8M9PXr5hV/9+3i0xt/sJR9tnr2melJpv2ozd+EB9JVJJF8QPolWpbAUq5P0SwwpehOvJv2r4LGIbdVq+K2N9bq//v687Mbf0g9t2mjpeHnLctPpH8b/zLLMENXkETyqdpd1VafrL71/1KnP/9F+itHbb3wb5evXTO3lIO9asM3SYUAvQYu3vrb6q07stb1pStHIvmgWIrqJRlvqNIy3tpsDeGXv78XkNdaQ/j18/O//25JDqvVf9ycfmzrb18+vmP7+g501UgkH5XFMucqgJ7IeuERwmdzsNd//dWCEoB+nsG+aWPaDvgOulokko8rLf2tJ5cufTd7zZpPq7kQvhIhfK4NdEsd/NHmTRaaNEMi+boylr478stV8V8xyG298PMvfP998iFbCJ+Rv+XHZVN+2bSMQngSyde1enViT0D+DVerI4T/rAigszC+9pefM89nbVsXRleJRPIDff99UjtAngHXsTb7hg0L97NaffOm9PNbf/3y+PasdeF0lUgkP9G6tXPfA+gX1q+bV/fD96l/MNi3/LQ0L2vb2t8A+wi6QiSS38Ce+Ch87qv1nx3nOuUqEMIXAvRseChdIRLJT7R27dyRgD3nu2+XZHFj6/lbt64+uj1r/fdZWevupCtEIvmJ1q+e2+fr9Qt+RgjPxtbrf/pxaXHWtnWo2devz8paH0BXiETyI238IXUDA33TxjQWwp8A6A1wOmDvQ1eHRPIjAfRNDPbNm9LLt21dc8QK+/avPtm583/X09UhkfwK9tQUtvDlp80ZBQC9fOeO/+Xv3fP9qwcObKbcciSSn8G+ALBX/vrLqj2sVt+ze0PRweyfZh869DPBTiL5WRg/e/OmtIrtWWtP79j+Vdm+vT+cPXTw508IdhLJz7Rxo+XxLT8t28dqdRbCZx/4KQewxxHsJJKfafPmpY9mbVubDdhr9+zaUHjo4JYygp1E8kNt3bru7wC9goXw+/dtygboDYcP/fJJTs5v1BtPIvmTsrLWP85g37nj68qD2VtOA/SyY8ey5uTl/U6wk0h+CPuFPbu+PY5avfbokW2nT+fujzuXd4hyz5FI/gf7V6UHft+8k8H+x7GdBWfPHFoO2Gm6LInkT9q+fX2fXTs3fAvQy48c/jU/99Tvx87lHV5PsJNIfqijR7ddd+jgln/mHN2++uyZw7sA+6azeYfpQW4kkr+qsDCnU/7ZI0MA+z8Bez+6IiQSiUQikUgkEolEIpFIJBJJkBJmTr0iIXZau4QYc0ced4h/YXq7T2OjL3F87LT2TrZvsj+3Txsvnm+bBIfPZ+dzyfnFmNn7HYScn+3/M7edGzO5DZUGkn/DHjutU0KsORoFP4HHH8fHRD+REBs9w97xseb/4L14J/vY+zVuHx2OExAfG30z4LrqMs/3Fpzvv+w/B+cTc8n5xUTHAPiPBZzfR7b/zzwJv6vx++1xMebuMIFP8kPYY6LvQiHPB4gNzexC+Gt81kvwMAB284evzGgr8lw7Yd9HcZzSZji/Mhw7Cz/fwc3DgAjiaiodJD+r2c0TUMC3wYfgYhFwnINPOrhSwH51gOoYfi6Ii42OinvBfL1w2M3XoOZ+Dvv+Ch+GC6zH8z74pwH8S/g8mg1J8qs2+40IW4ejcEeikP8Nfh/eBdc4AYHVqh9gn+mAdZK98fqT8P/BifD38AkXQNVagY2JZmG4CufR3t25ol3dDmF8b3x2MD7PiP0ewjE+tMHp9HPe5c7J3m/Cy+ADLvZjN640fBbNiCT5p+Ji0WaNNY9Em/cgPwTm/8XNjL4VIbjzY8SYe8FoHpgjsP0c/NzPwc0HVRXA3YzPHAOLbivjc66LY5/Bc2y8dxI3kWt4bnBX4f07cKMZifN7Bb8fcXJu5fA89v9QySD5pVhbGgBm8IXIKPjJsKBsPKiJ28bHTMPNI/pu7PM29i9xGtrHRh9Hm3yMJ+eLfeW8sMdGb4Xbuji/Ngkx064G8JOxfbaTczuKm9X9VCpI/lvDx5if4QvlxcBud/Nog306w6MAzgkX7exjCTOnKcQOg2G/W5zA/qsr2P/c39wetbyZfb6TG9GniAauo1JB8lfYn/QW7Pb6eNb0W7H/dyx85wGrHnD+khAzdVBLws7V8qjhoxc5aW6w872HSgWJYBdZy38yM1qBGn6Dkxr+AhsjRzv86paE3dZfEf00N8rgeKyDqPn1VCpIBLtIoRZF2Gzt/XfSCRi9H3BFtDjsMeaJrO+Ar3mB44yhUkEi2D0QjnUt/LqTsf1qwD43ISa6ZwvDbsJ+OTzH2o7jDKVSQSLYPf2M2OhAHHOz09o91qyXCOyZaFb0p1IhMUWpFJ2ilPLbowb36URXQ+Kwx5g7wnOs7fSmgOGzzc8i5O/UUrAjmngc++U1HWs3zwLsHXl3Gh8c0DZKK+8UpZF3jdIoukepFQb8TMDf/7ikYGqxnUZ2dZQ6QIn35sBfYbv9UVrFRuz/BfbD6yi8g/s0GYrAvrCsPXwjjhGFfb7A/pvw8yy8Fr/HjdfIg/GzMwDwysT+KGVAG5Na1smkGtTTqJaPM6oUs00axRqTRn4APwvhk/CPcJxJrQjH69cZNbKOfOfv8nPwv5k0snZGtaKTSS3vit9vx3Gm4bjpRo18od12bfAZnXAN+uJ8nsG2m7BNEVzC/fwV2z8L944KGtDW4/97cJ8rTOqAdiatvAu+k0E43gz8Hm/SKtbj83+CN+L3Vfj5jkkrC8F7PYwaxZW47u14/rd2+H+6mYL6CxrKMWoV7XHsrvgf8bmyZ3HsRfj7J/gMXAj/gs9dhveewTYD8XcXVq58AXYOVL2LmWwW+LaWgB3bs+E3NnuwwmHYbS3+334OX6KsG8C8DaDJAGoEPBugATrFebzWANfB87jCA8gVPbFNGLyBe5/PpdhuTpRqUF97YKLu7dsOr9+BfR/FNjtd7F+Ec4iPUssHskLmcWFnNxaNrAtgUsIM8INwg3vLTwKMF02qAAVuFJ3cANXWqJJfj/364UZxN/a9H7C/jd+/x2uljcfEaxusEOAmgm3k8Kt4PdfNufxuUslC8Bmir0GkWtbGqA64AYBGAqSlcBncAFfDFdzvDpafBexL8LlR+PsueIDVGoUC7+GmJd9m1Mofc/O5HXDtbsF+U+E1cDn/Z11idm7p+Iww3JSvEXuTbQ3YUXNfg+Oynvl6ntl6W+G7mhv2hJlT22H7MfBuh+m8Wfhfw3mAkL8OuL6BTzoBrwSAvgRwUDvIRuD3BXit3AWojS4HsItR+/exfo5adj3gHY/XvxWwL3MV9k+GB6Gm8eiOH6lS3ArIn0VhPcDBUw0fhbfAX3O1+W44nwe0GhTu37D/JBynm9MaTB1wO0B+B9tvA+AlzsDFNt+alIO64ZiT8Pcm7lzc33jUivMAfqTY/x3gKAHdfEBUBNfBx+Gv8PrnAPpj2++KbLjKCYDF8B7OZ7ljXADs05xGEaqAq3HssfiM1XaQF8BZMIsivoe3wafgGp7PxM1P/gqA78sXXUgJdhus5gVOxt3P4b1hzQW7dbLPzOhu+IwQbLfS7v9l02TX4/+McFL7KVbCp1xAVwYn4abwNH7u5mp6Vuv/zHkbfJp73XHfAmsNr5GHw+/aRQuV8DH4AHyU+9sJ8Iq3cZPoKvaLAFwaOAnAVHDgnEJBWgAAJqBQyqI0AT1MStlAgDwS7z0Pf2dfE9v5EI4zAzUW73pmHE/D3Tiq3ICbhRvHC/h5zO61cq52P+div3oAvxnneZsI0IMBzo8cQHXsswHhg5FaxbUcmG2MqoHXAlwjtl0lsPZlPorrwNvhg+YGu5G9gG32cdsymDchnP8PPleDyuIOfI+3obmAm5DiIbw3n4O+3uEzCtn3hOZHb3YDkTLsAO0FF1Np9Z7Cbh1GizFPRHs7PCHGrG00wvVQNgUWkD+Ibdg03h12/+tBvP4+/sc+LkJd2R0AcQrAiodZu7vWATgG8TnOu+D3AeB0wK/hPAz7T8PradYooCmwuRzUFVb4tfJU+J/4PQr7jcFPI36yG8kqJ8DjRiQfJBL0oSjg39hqZyswZwDlrEiN7AYn4X5HvH8PCuEXToDfDeDGobbpyNOx1hWfNwLb/AdGO1hR6QRaVusXwGX4nB9QoOfAj2PfifBU3Ahew3u/Oanx0Y6X/1vQ/66RawHMBri2EVC8NpX9j7xNELXsHg74agfo2P4ldiH/HhznISe1eiec38tcLW4D3dYnMgSf28HJNUfTR2bmIg7Hm8oF7PsR3u8gadhjzNE49nknC28mu1sR5wL2Bm7lHesT+MXOLFz/A87niQb2sck1LmG/2OGmlfUExOGA6xfeNrhWsRDQDcd217IOJsdCg/f6WsNuVhvzQ4s2vtyENvRt2L69w/7t8d4A22fw7AtQRbRVb0VBs9jVtJWAaTFA7yHgJtGHiwYca+laeB18u4tr2Bn73gNon2Q3F94aWiP/He8/hu3uNKoGdWPX7WIIrBzY1cRuUmpFCg/wrHb+KkoZcJOb7/EqgPKFXWiO2lWejmvSzWWfg7WGVxx0AK6chfz4GQ5HooZWm4L68/ZfsJsWtjlvt+8+nG8kboTt3fR3tDeqEWlp5QU8wJfivCZLHPbhOHauE9j/xebVXwbsYs3+51PwD4gA3oiPnSZzN/wD6BSvO9TQtbgJZESpAm5x11sapRqEKEFxmAfYnwCsFkC3c15QFcwDbTeFJrBvEdj73AEw/Zvr0W4E5XSkWi54FpFJGdAXhXcfD6wVOHY0gOvgqvfbqJL3Asyf8+yPkF0WjP07u7j+7aJU8ruw7Xqe/XfhhjXUTQ94pAO0+aiN/+n2BqlVdMG2ax1gY230dwV0grJOvB0O4fhihOuCJpZEqQfhs+Uv8TYbNGgiDu7TRcKw3+N87bv5CdTsnTyFHbX0Nm7125+OMe+zTtxxDX29NXuNNVGGeSLa9x1cfHmKGLjwkp5xrSJWSPuJtQWtYX5T2DMB+u1u9w/s1w5g38/T/q+MCrzjGvc1s1yJArLZAZJ9qNkEd/aw/wHtYzNXm17ayaaRb4S7uxnmQw0tj+XpoNvqGBE5GybEts9xQ4L2x8jFZz/i6rwBzX+tIfCfwJxG7ThJYPg/k+vMswduCW5APVzcnNriMxOxXaXdPmdx03lCyP/aOGKC7ftxTQ9H4Etwg5vim7BHh7GkmB520DG4r4K7XOIYcxe8f3X8zGlD8PeT8G8c2HVOoC9iY/4JsVOv4l3HzwM7+/0FwbCoZToe2FcAdkEdTIgMVNj+iMP+NSgUGjdRSTvUyA87tLnrAM580T3ZGnknJ7U7A76/ANhjeGDfILzPQT4K++xxOEYBjvGs88/t3xXgzXfsUDNpA4KEjYvLJ3Nj4Pb7p+O63+z0OqkVbHx8i8M+u3EsUaMHrF2Pc3+Yp9+gBjeCxT4Ku8cddEKH3ubGTL4yPsZ8nzV0v3Sc/ZJUVXEzoyfHzYru6H3YtQE9Lwt2rSIA/l4s7ACsh3VSjENb2yiwY8sBtvY43kv8Q2jyJ5oddpVMxnX22R+jEjegN1xcdza2neE4lIWacfxlwL4gytWwo0Y+HducdNhnI85F9HPjjBrFMOy7n6d2347jdZMo7COctNlZD/3I5ob94ni7LQNumotcejsSYqf1bQbY0e5sCvt6+A5h+8vvwLZfioUdBY8B8oPjWDngnCF6Mo5K0Qa11kgn4+ULmxt2HKMf9tnI8/mfiIQ9HzXjUx7CzkLz11wP8Sle55mg8xXraRc/L0DWF7V7Bg/sh40aWbBEx9kf57LPOsL1M2C9s6Vg54AfxOXP42/Lx5gfbynYcXdWyJsVdrUiCLWDY+hdbVTJQzz5InG8frax+SbQfue6VpZ3w43ijVaAvYetY+wSUFhYvIh1XAposz/Fbg52+55kY/OuRh+4sXJHOJd5cr1xvCu5m4fj8U7gRjReirADyNe4NrMjXIvwWb1bEnYr8LHTxvLP6LN2GH7XUrCz8fu7mhN2hLhsbP00D+zhHsGukd9qtI17O06l3e2mCdCDG75radjb4/337MbXG70lElGP+34KRaLDbLrNJo2sv4vPu9E2xdU7sHORwvM8xzsJ2CdKDfYPX5nRia0qc5IhJvaTWdFXtjTsaMOzFFrHnWXXbQbY5WzMPa8VYB8Bn+cJ4x/3rGaX9wLwGTzQbnazH1tsk9LSsHNDbw9xs9LsYSlAeByD2r2ji6E3Ng/+Z4chu2ddrUvAe7diu+U8cH6NZlAvz26wike4RTKShz0u1sySRWbxQJULUMezKa0tDTv3/6c6C+Wbo2Zvy02hbVHYAZMKPtikg06teMdD2FFDy5eIhbY1YY/Syq4HHF9yY+T2wPwBT0e7uIv9kJh19Z1yYHfcDN6xWyhTAegWmgL7dXMTdvfmFtg4wr4Z7w306JprFZN5blYHcLw7pQQ7Axlh8d94OufqrTnbY823CzlOM8H+bgvC3jo1O2AKNDYdrqo3qeVfNc5UE6NIjew61G6f8UD7qVRh5zraDABkF8+c82JA/RE8BL8H4Ccb21YhGnrPrjYtxjVcJGQiC4sUsH0Cz+dk4xzGeQj7FOtimEuPty9KM6i/lGBHiH49jpnOA9RZ3AQeFd7B1yywP9KCYXzrtNkB5h3wSh5AcozKgNtFFzy1/EYAuqYJtCqFWcqwc9BMAiR7nSxjLeAWq2zmanxuaqxiO67fa6ag/tcIPU+cz4t2EcHFZgOO85wnN1jceB7l5uPbz+L7RkxCj+aGneWh43K+HWqSkio2enlCTHTfVob9QyfHXOs3sEeqAtiqq9k8gOQDtL97UPD6Yt8jjhNbTGqFQuqwcze/cVzv/HEnK9jYqrRj1qWuGpbMw7popaPITswJtok7TW4oaZFq55NxnAx3dsK+rzocqwI3rldEFvbmzUEXM20Aau/lDh1z9dyqM1ERTdzM6f28DTvOIdPJ0Ns//AZ2VpMAxAe51WUO69IVGdi/qzjYFYO4Jaj2wKbCV/kC7Nb2uFZ+A4B5mpv4Um2bwy6fC7PQ/e8I2SMBrBygXelJwTJqZAO47DNNx8a18rEiO+du4hbx2B+nyKSVaUUOh73L10PuDdhxnO7wLJ5kkyyN9EzWGy7yXEP5wYw+AHvSG38N34o4NssvIdbcdOVolEb+ssNCGJ+A3Va7K4J45sYzH4cfENxeVynaAs5HmsxgU8nvQ5OgnSewm9TCFvN4GfY7AUwqFxp/C6BGA55eeO9ab7Rd2TRX1LxvsBVqTae5yudGamQ3iogSgqypquyOY7SuqQjoJBKgRbxzxWOiv4Vv8vR/ZY9dTrA9dvkUD0yzhWaUdYhCJjhpX7Opr+08ON7DvA96jDG/gBq/Cx+snzksRPEl2DtaM5041MjcEtXVeF9QLzHLIQf/6jAnfoFRLbvR3YIgp7CjOdGiYbxW/iQXwnOLVFiNLvP6g/5wTA3XHHBcsXYW38VEZ+vZHW4aHbm58ZV2+5eZ1MJ74d3BjtfPw/0vA/bpTtauv4/3rvHkmC5gb0iYOXWgyGOxKbO/8xwrIyHGfEeTR1OxcVWAtdgBtGJ4ltC8YNaMJE1hz4bvFgh7P2y7hgf24YJqZbUsgEtcUdd0iariE/jWSBdprtgyX4D+uG39+cW15JvxmpLldRPQsdeLJZjkAbVM8DVUBgzgUlc5HiPB3Qo+/H+sp30DT7qpvSa17H4A2Avvd8fN4Cq4S2RwQEdjcEB7oavU+CII1MCzeLPdaORHAKwuSiXv6OKmxCIQBctqY5+TDsd8PlIjby+ywLPki985m0WG9y1xseYeQh6zjG3astowIXaaHDVjhkP6qVq8djo+dtoMvN8FsHt0A8G5POF8qao5Ie4F1+vhbUOA0Z1xDvfE2RbD1Do8ujkV59YfbmP/hbUdjy8foI0AWFt4YF0dpZb1H69x/qWxO/h4reI6NAMe49kf0YF8Avbv4Sx5IiC7Ikqt6IZtI7j0V5dmy9HIE9gyWRyjm7ueXoA5nsstV8fTdl7BMsvAvZq0+TXyG022fYvs2vtZ2Ha0kNoJ2/XE9qHwYd717KoAJba5ji/jDdfJiBuN7Hru/H/nOcZPiDDC8f7NJpXiar7su9y01/MuUkvtB1xrANln8HvwE/ibZYzR4fhq/GTJJe/A6zfhxtJVSK86G6pDEyGDN5+dRs7ScD2IY97GOuEcrhlLthEIr3RYIvvvSK3rvhF7fRob3RGQ94YnuXnmOWp489dsnTfguAfb9wGwN6I9ew2O0Q3ujlrwNrwuwzYskeM7Dser49rEX8XNjA4FbKJDbXzGlfEvmHvhZhGAc9ni4lxLcHOKwbncCeOczNdx59gt/oXp1+M8ce7RSvi/Divv6q1ppWPMiYB8gGPYPQgQTcLPFznQa/hhteaqewrQjQOUN/zZxpd1x2vD8d7fbGvZ5cedZKphoXwctn0QVl1yDmprlhwj/BqX+oo/gSVLNa3FNiw8VMv7u8qEwgHzm5MUUSzpJBtDnwiHwOFoU5tRMBfh9+LGSAAFeB1qaqO7ueXY9k7476zmhfc6zyUnZ/MAPoCfBJQj0Ka9motG2uBzBrJj4PUP8XMH1/TgOw67kSTDL7FjNLlhWGG1JnisF5hXzj70ZrXz7ywyYEtLcT1i4BCjOuBad1FJlHW5qzydZyiucY7+lzj+UzAbJQiB78P2s+xy1rFt9uFzn8X/IChdNQp1V7a6DH6KS9+cLzCrS50VkJjo9YA6Cb+/lRAb/Rr8ZrwtgeMeniQR52zZZM3PAtLeHtTivbB/BPwcPnceYNzufB77JU+YOQSvwu8fcOf4Gv7+CPuv4+k/YAknf8BN4mlEJj34wuaXneSOc+bzDHi7/YO5xJO1AvdnN5N0h05BE0A/LeIcWMbbh5zVkHYh9UguRVWeE3CqueG1M3b56ho4YOcARkGLd7iltZXC0lRf7ANYi/MbxJ1nB/hVMfvbjqH40knP9t/ZAhLRsPMPz+0D8K+bVINudtVfYUtiGXALPnuO7YbRZI5+Y167c/ARuyQb9bYpsYokXIOxLKefwJ7nNqiR1S5yt3vDDB6WHYb15P+DrSzzqL0/c2oH3CSm8TzIwVs+A3+Lz3gJ53iXqzbyE1ybutFZ3JLU1U6tCVDagTqSW39uf4xvePbbyNXuB7DPvEvPQWbA61u5fffC37n8fJvdrhe2LlVVKW5BaD4dTubyxlfxp41WHAeA61Cw/4uoIETMUJ1tnJo3USWfa3EuZ1HLx5lUsltt7Wy2fl7xtEjYzwCOD5w0KboY1dbQ/HsXqaLFuAS18Aew255x3CC74TrqAe9soy19dIXzYyq2YZsFOK4J7fNbxOTHRxjbEQX7aW9Cg9D+RJytVv+Sdbyx2XCAPASh/k3uss64GfvugePFee9czWfjbMknV+D3t1DTT8W1uBvu4KatyYZiFEo732NL/sg6ypxYOaCzHezdWefbJcdgud6b7KeQw0Hc+/0cCufVeP1ebv9AWwILF59vs+A2HcsbZ1LJbwHIKpMtk+tz8POcAZn8PryuRUEdYFQN7CI2hTFuDizJJWvzhgmwHp81DOfTF+fV8eJNCU0jgftbzTLo4nydzgw0BfVnIxM6a5Ry+bBbp9KirKgFD19qFd3ZGL4tZGdJLnCtG217Mk0oQL8H23k0HIaC3RZmk1LCRDocgLCJN8/D0+3fA9jB1ue4xZj74WZyHZst540RCxybrZC7y815meHJwv4H8zCc57043764EXXHeba7gsRb23eIUsquBGg2qwI6X85TZyT7fwb17wmoLFzNylJpx5vUMj1eC7j4pBer5cPx3t+MWvmb1iW9TRfR/DnurZHP9+hctAEd2Hr1i1YP7HA5T325HKGGbgNA2FLQK+EOUvm+2Lmw0QQilCQOLEQp1qfZ2NrcP6D2ZE+HaWdUDmzjGLVYh840sjaAvS1gb29iz2bTKpbwdrRpFMfoCpNIEhAbrkJNzUYhsrkaehteC/LgON0A/Ms87e18usokUuuD3h2Asl74HLtFJA97ejzsGwj/6rh8la40idTKoTtAZCvQDl3SoeYi57t72OU3Oy5MAfyf0dUmkVqzVtfIbkL4vsBxxdhl3kB64JgJDrPh7qerTSK1olALD+Sehe4wVCY+pbPdMW+xz1ZrZI931ihuoKtNIrVuzd4PcGY2Tfwgn+7pMVGLD2fr0u164h81qRU0NEQitWqb/d6+HQDn/3FDbZckkQCgQZFq4Y8+ZvP0I1ka7T/b61W4acyHe7LFSiQSqbVDeY18JMsj1+RJrBprbrlJJgaru6fwsnXlGvnd1gk43HPSAX06PICuMIkkldpdpbiarYSz5YlvMvvtlLWzTSOfjBpayZ6aGhkccIPVWtnNeG0QtmE3iyfg37h9zmM71OiKO+nqkkjSa7v3Mdp60EudTHkt4J66ugLwf2GztRNuDbfUtIqbjMNSUT8XqVX0pqtKIkk1nNfK2QMSY+BcDxa75CCE/wS1+XD2LDe6miSS1EN6bcDVgD0YfpF7rFOJC8CLjCzfnVb+HCDXRqplPekKkki+BTxLBtkFAN/AHtAYpZGFGTWyh1HzvwW/H6WVTYbHmtSyAYC9F7bp7GkeOpJv6P8Be4IG54ZeBpEAAAAldEVYdGRhdGU6Y3JlYXRlADIwMjEtMDQtMjNUMDg6NDQ6MDMrMDA6MDDd8THtAAAAJXRFWHRkYXRlOm1vZGlmeQAyMDIxLTA0LTIzVDA4OjQ0OjAzKzAwOjAwrKyJUQAAAABJRU5ErkJggg==;" vertex="1" parent="1">
          <mxGeometry x="-176.96" y="257.5" width="84.32" height="86" as="geometry" />
        </mxCell>
        <mxCell id="yJ8dsvp7RU6qVgDbuZnN-16" value="Customersdb" style="text;html=1;align=center;verticalAlign=middle;resizable=0;points=[];autosize=1;strokeColor=none;fillColor=none;" vertex="1" parent="1">
          <mxGeometry x="-170" y="224" width="90" height="30" as="geometry" />
        </mxCell>
        <mxCell id="yJ8dsvp7RU6qVgDbuZnN-17" value="bankdb" style="text;html=1;align=center;verticalAlign=middle;resizable=0;points=[];autosize=1;strokeColor=none;fillColor=none;" vertex="1" parent="1">
          <mxGeometry x="-167.74" y="344" width="60" height="30" as="geometry" />
        </mxCell>
        <mxCell id="yJ8dsvp7RU6qVgDbuZnN-18" style="rounded=0;orthogonalLoop=1;jettySize=auto;html=1;endArrow=none;endFill=0;targetPerimeterSpacing=7;sourcePerimeterSpacing=4;curved=0;orthogonal=0;linecap=round;" edge="1" parent="1">
          <mxGeometry relative="1" as="geometry">
            <mxPoint x="30" y="190" as="sourcePoint" />
            <mxPoint x="20" y="580" as="targetPoint" />
            <Array as="points">
              <mxPoint x="10" y="190" />
              <mxPoint x="10" y="330" />
              <mxPoint x="10" y="460" />
              <mxPoint x="10" y="580" />
            </Array>
          </mxGeometry>
        </mxCell>
        <mxCell id="yJ8dsvp7RU6qVgDbuZnN-19" value="ms-accounts" style="shape=module;align=left;spacingLeft=20;align=center;verticalAlign=top;whiteSpace=wrap;html=1;" vertex="1" parent="1">
          <mxGeometry x="194" y="398" width="140" height="50" as="geometry" />
        </mxCell>
        <mxCell id="yJ8dsvp7RU6qVgDbuZnN-20" value="" style="shape=image;verticalLabelPosition=bottom;labelBackgroundColor=default;verticalAlign=top;aspect=fixed;imageAspect=0;image=data:image/png,iVBORw0KGgoAAAANSUhEUgAAAPsAAAEACAYAAAB1UADIAAAABGdBTUEAALGPC/xhBQAAACBjSFJNAAB6JgAAgIQAAPoAAACA6AAAdTAAAOpgAAA6mAAAF3CculE8AAAAB3RJTUUH5QQXCCwDHDiC2wAAAAZiS0dEAAAAAAAA+UO7fwAAOmlJREFUeNrtnQd8U+X6x2UjKDgABw6Q1SQObLPKDG1SaKFJUUBGiqj3qle9evXvvbZw3Sju1VYKomW0TVtGQZZecQCKA8pGKKsgUCjQXbrH//cmpxjSk+SckLYn8fl9Pr9P2+Sck9OT93ve513PueIK0l9KM1aaBszIjOpAV4JE8nfYVxlfhmV0JUgkf4f9S2OKOTNiFl0JEsmfQc+M6jpjlemnB5aFrTYkqQbRFSGR/LZWjwye8aUpZ9JSw+awhZoP6YqQSH7bXjfNAexlgP1nwP47avdAuiokkj9BvjaKdczpAPpOuH7KsjFbAXs5/FFYkroNXSESyT/a6W1mrI7qA8hXwA3M5pVjfwfoDfBhwD5elzSYgCeRfB70laYbEL6/AcgL7WA/wsFeY1ioXqBPUvagq0Ui+S7obAJNL4A+G4AXNILOPH1lZAUHO/NBAG9E7d6WrhqJ5Iuwr4zqBtDfsq/RL8K+KrLBDvbasIXqJfBtdNVIJN+r1TtzoBc7gm6D3Vg/epG20g74QtTujyCc70xXj0TyLdDf5KvRG/3gKmNdRPKwHDvYmXcYFqrupM46EknqkLPhtbVRvQH6YgBd6gx0DvbasSnDsx1gr0Movwq+iq4miSRd0NvOWB01ACCnwTWuQHcBu9WGJM0CQ5KqK11VEkmSoJsCADGr0avdge4OdrjCkKT+D4C/jq4uiSQd0NmEmYEAeJFQ0AXAzpyPcD4WwPekq0wiSQH2NVG3Ad5UMaALhJ35pGGh+kkK6Umk1q/Vb5qxymQRC7oI2OsA+37YDOC70BUnkVoPdFajV4oF3Qr7l8aa8WmjdriBvRH4w/AkAN+JrjyJ1IKanDnm+ikrw98DsEWegM655r60kG0CYGeuB+yn4SgA356+ARKpBfTAitFdJq0IexU/S6aujNgpZJjNC7DbhuQWqsvgSJpDTyI1syZlhnUC5JPhw3ADavg81O7lLQU7B/xe/UJVMIBvR98IidQ8oXtb1OgqQP4DA73R0asiD7Uk7Fwb/hf9QvUw+lZIpOao1VeE9YKXAPAae9inrgzf28KwM1fBawwLNffQN0MiebOdvnx0R5i108vsQedC+RIPO+ouB3bmC/CisCR1f/qGSCQvaeJygxFgFziCzrk2etW43a0AO3Mp/CaAv56+JRLpMhSVqbtiYqZBhvD9gBPQmeumrYzIYUkkWwF21mFXAD9uSFJdqUsaTF8aieRRjb7C0Bugr2G1twvYWShfhVD+TGvAzgF/wrBQFa5fqKQhORLJg9D9GrTT32Lj6a5At8K+YnR59Mpxh1oLds67EM4r6JsjkcSAnmm4EjX6gwA5xx3oje32qZkRLCuNmDH3mgkZ+iwvws68HOH8NfQNkkjC2untAHoIAP6VtccFwt4wJXNM4YOrjH+IgL0WkcNeL8POMtb+G233jvRNkkhuNGm5oe8DK8LSAHC1UNBtofyYUoTyeWJgn7x8dLaXYa+3paXWjKNvkkRyVasv1V05fumov01Yrj8tBvSLvfK2UL6kFWG3PnSCTbhB+70ffaMkEo8i03VXmDJ0/eGs8UtDz0xaMfqMWOCnZIbnIpQ/1cqwM5cbFqo/GJ2kpfY7ieQoY7quA/y6KWNUQ1TGqLyJywyiYZ+8YvQFhPIsT3xdK8POfBrh/AxDkqoDfbskkj3sGboBpnRdPoMdrrl/mb5YbLudGaF87oNfGoslADus/haw30V56EmkxrZ6Jmr1DN1cDnSrEcofm7Q8LF98KD/mFEL5ImnArqlGOP8KgO9G3zKJZKvVRwDwc/awI5Q/P3G5ocyDjrpKhPL5ApJatATszMcBe4g+iWbXkahW72TK0KWw0N0edrgWofwpBq8HofxBwHxBIrAzfwPTM+RIf/mOuSkA+6QD6LZQPiPkAEL5UtGh/IoxpxHKV0oI9uqwJPVj9G2T/rIypel6Auo1cD0f7KjxyyYuD6vyIJSvRyh/3E2vfEvCzhbLHBqdpKFHQpP+guH7UutQ22OAOpcfdJsRyu91zE4jxFMzI3a7abe3KOzW7DZJ6g/HJGkpOy3pL1arZ+juBMzfuALd1lEXcnLSCvG1++QV1rnypRKCnfkwrKFvn/RXqtU7A/Z/AuZCd7AzT1xuOO5BKN+AUH6fxGCvNCzUfK5PUnanUkD6a9Tq6bq7AfFPQkC3hfKh2z2BfWpm+EGJwc58CO13E5UCkt8rMkPX1ZihewEQVwmFHaF8EUL5Cg9C+XKE8mclBnt12EL1YkOS6hYqDSS/1ri04b0j00d+KxT0xjH3ScvD9nlQu7NklDudwF43dXnEqVaAnfkY1e4kv1ZEypC2EalDHxhrGXbOmD4yRwzs9y0LZbDXi132ilD+jLMhuGmZEfWtBDt7dlycnp79TvJXhVuGdoa/jbAMKx6XNuI4IK4THMovDalBKF/oQShf4SyDDWBvaCXYbdNoF2oMNI2W5J81u2XowIjUYeWAvWFs2vBCY7quQHi7fdSFicsN+z0I5cvNK8fmSBB2NtHmU/g6Khkkf4T9ZQY65zy03c+ICOWrEcqf8WCCTd2UzHCWvaZYarDDuYBdY0hS0RJYkv9ojEXbHYDvsIO9EqE8G2evFgr8+KUhpQjlxSe1yByTP31VZI4EYW8IS1K/DVOCC5IftddTh4YB8BI72Fkof8KYISqUL0Aon+NhKF8oSdgXas6EJgX1oBJC8p8QPnVoIgCvtocdPmNMH1ksslf+ggcZbOqnrow4++CXxnMShL1Bn6R5kEoIyT9ATxnSH2DvdQCduR6h/DkxE2wQyp9GKJ/rQSh/GqH8aSnCDmfpk5S0QIbkFyH80wD7PA/szNkI5UtFhPL5E5Ybznow5l6NUL7UfiWchGAvMSSpDFRSSD4OenD3iNRhywB1nRPYC4zpVtjrRcyVZ+Pt5aLnyq+MOIZQvkCCsNeEJWmWjEnSdqISQ/LdEN4yRO8khL9ohPJHWHtcRCjvUTJKhPJ5COVLJQg7c7YhSXM3lRiST0qXObh9hGXoiwC6zBXs8AGeHHSuXIpQvkTMs+Aa58qbV41j7fYqCcKeb1io/heVGpJvhvBpwbcD9mVuQGcuj/wzZ7zAUF5/zLNQPnw/QvkyCcJeC6cjlL+KSg7J5zQGIXy4Zeg+AbA3jE0bsV0M7AjlD05aEeZJqumiB1cZayQIO/POsCT1cCo5JJ/SKIu2qz5F+/Lo1OA8x8k0vE4dliNmYQzr0Ju43FDkQa98A0L5vWw9uwRhL4NnGZJUtDiG5DsypGj7wsvDUrQnwlOHFgio3esi00f+ITKU3+lJMsopmeH7JQh7tRX2JPUiwxfK3lSCSD4jfYpmCHwUwFePSR1SBJhr3ME+Nm34PjGwR2WMOoFQvtKDUL6CDcFNyxxbN3qhtqoVoC6AzwLsc4YkdYHhC3W9/nNVsX6B6oj+M+WG0PlBIVSCSD5Sq6vaG1I0kxnocMPolOBswFzqBvb6CMvwIlO6rkQM8Ajlj3mSnw6h/HbzynGV4YuH5DZf6mhNPnwSQB8H0HmGz9VlALoCPgnnAOxj+vnKU6HzlPVwA+eKkHlBz+rmD6Yxd5IP1OrJmm6A/S0GOue8cMvQSmG98iMOigvlPUtGOSVzzB+AvTAieViOF8AuNCRpjgHqbMMXqiOGz1XnAXO1/jNVIXwmdL4yFz4PkMvtoHblxQCectSRfKK9fgu82Q72WoTyOYC51g3slWPTRpwSF8qHFHuSjJI9Q25qZsROsbAD6KPwHkC9F0CfAMzlcGXofFUxgC6AC0VA7cy/w2oqSSRfgF0GV9rBzkL5XTyr3pqE8mMtw0sQyp8XmYxyryePiMJ+heFLhuQ4yRHH2tKAWv0r2tO7APQfALkGBthWmJmr4LrLBJvPNajZzbq5g2mdO0nCIfwSbTt9svYRe9CZ9SmaUoTyVQJC+YJx6SOOilz2ut+TITj20MhxKcN2oqbORXt6O6D+Be3oPQCtmIOunoO53qFd3ezGOXwRMi+Q1rmTJN1e72BI1n7sCDszQvkdAmCv4jLY1IhMRlngCewRi4bubUmIRfhIyDxlPypRJOmG8MnaTgD7az7Yw1K02YJm01mGnzOm6842dzJKicPeEJqoHKGfq6T8dCTJttevhE/ywQ5XIJTPEwD8+cj0kWdFJqM8K3aCjeRhn6ecCeApqQVJqrCr+zsBvbFXfqcA2KsRyrOFMZUi5sqXiE1GKXXYEcavg2m8nSTZmv1+F7DXI5TPExbKDztmFLESjiWjnCBygo0P1OzFoxZQJx1JsrBrXncBO/OF8NShRwUAn49QvkxEKF+HUL5cTDJKH4C9QZ+opFVwJMnW7GvdwF6OUF5QRx1C+ZOAuEJEKJ+LUP6UP8GOMP5lKlUkqcK+1w3sdWGpwWyevJDps4eMGboykckozwkdc/cF2EMTg1ZQqSJJEHRVN8B8zg3sbAiuAKF8jgDYS43pI4tEJqNk4+0X/KZmTww6QCWLJDnpkzV3AuYCd7DDZQjl84SF8sP3i5lgg1A+R2gySp+o2ecpz+vnKm+i0kWSFuwp2vsAcokA2FkozxJaFLmDPdwy7KiYzLNcMspSIckofQT2EoTyEVS6SFLriX+G9bYLgJ2F8qcRyp8SMn0WoXyuyAw2OUKSUfoI7GUh85QPU+kiSa1zLg6uEgI765UfnRpcKCCDTcPYtGFbPUhGecFPYK8C7B9T6SJJrWZPA8Q1AmFvAOw5Lh4LZe88kXnlGxDKF7rrlfcR2KsB+xdUukhSq9l/Ewr6xQw2qUMLbSmp3CSjTBt5SGQGG7fJKH0EdubfqHSRJCOdRdsZ8G4TCTtb9nqWtcvdwF471tYrLyYZ5Ul3ySh9CPYs3fzB9PAIkjQUmqztI2BCDV8ony3g8VCeJqPM8RPY94UkBg6gUkaShPRLtArAu18s7HBxuGVomYBQ3uvJKH0I9v36uUoFlTKSNGBP1oQC3BwPYG8YY7HOlXfXK181Nm1ErshQvhShfLkfwH44ZG7gUCplJGnAnqKd4CJphbsx970CYPc0GeUeP4D9ZMg85f1UykhSgZ09FOKUJ7AzI5QvaKZklAecDcH5GOwTqZSRJCFDsvZfgDbfU9jHpA7JaqZklNUI5fMJdhLJW7CnaF8ROC/eWSj/h6DZdOKTUZZNXG444OOw5wL2KVTKSH4BO1scg1D+mMBklOdEJqM8xzfBxodgzwfs/6JSRvIX2Fkyyl0CYK/hklFWiExGedqHYS8B7K9QKSP5C+z1YSnBpUIeAOmtZJQEO4nkGewvXybsrN1eDtiF5KcrQCh/wYNklFUEO4l0mdKnaCd6Os5u/xCJ0anBRwXMpmPJKE9cbjJKH4K9CLDPpFJG8ifYG8JSg9lTY4oEJqO8IDKUP28/5k5DbyRSa8LOklFaBOWVL/MgGWW+fTJKwF42bsnwAwQ7iSQO9gjAevxyYbeF8kPy2bJWAckof7/MZJTlppSROQQ7iSQG9mRtIEDN9gLsbNlrvpAMNuGWYTkik1GWOSSjJNhJJNGwe77ElS+UPxOeOjRXyAMgjWkjT4lMRnnELhklwU4iiZUhReVR8gpns+kQyl8QmIxym6hlr0tDDtklo/QV2A+FzgvSUikjSQh40TnovJGMks2TrxaZjLKA65X3FdgpeQVJcrBvZjPhvAT8WYTyRQKTUR70MBmlr8C+V5+ovINKGElKPfIWMamkBSx7zROYjPKAyAw2p7hklL4C+zZd0uCOVMJIUqrZZ8OV3oI9THgyymJTuq5YZDLKoz4EO6WSJkmuZn9C6OOfBLpUYDLKC2KTUd63TL+bTbAxpow8JHHQa0PmKdOpdJGkBXuydgQALfIi7CwZ5X6ByShPiwvlQ0onLNNnRSwZmi31xz+FJgZ9QKWLJCmNStX2BqDnvQl7WIp2n8AMNiXGdJ2YpBbMJeFLhh2VOOwXULM/RqWLJMFQXvO7N2HnklGeF5iMMkck7OWAXept9qLQeUGURpokyU66xd6GXWQySuFj7umjLoQvHnpY6impdPMH96aSRZJizf4Pb8OOUP4EmxorIJQ/KyYZJbYtHZ0ULPUlrtlUqkiSVGiKOtDbsHPJKHMEJqM871+wB2VQqSJJE/Ylqm6GZM0pL8PeLMkofQH2kHnK2VSqSBJts2s6wcu9DDtLRlmG2r1CAPA5QpNRShj2/JDEoMMhiYEHR80LHEWliiTNmj1V3Q7t9meaod1+QWAyykKE8mUShL0ermOTZDjXWWvuxKAjoz4N2jbq08BfR8UH7dXFB52H6+BaOF/3aeDVVKpIkpQuaXAbfbI6yMsz6RqTUeYITEb5h5BQvhlhr4HLQxOVZTD7WRMyN6hk1NzAfbqEoF/gXQD5OFwJN7iwBaY58SRJ98jfBDjXeb12tyWjLBRQux8WkozSC7AD6qBSwFwQkshCb2VxyFxlHcAuQE2dPSohcA/APqiLDywCtPVuwG7qhMAn4XZUokgShl3bFXDOaoZQvkBgrzxLRlnoLhmlSNhRSwflIew+BaDPwMWj5gZVAuo8QH0UQB8GoKdEA+3c5QBdq5s7uA2VKJJ0Q3mLti2Aj/T2PHm2om506pACIckox9qSUdZ6BHti0DlAfQw19NGQT4NOoU1dDpcC6jOoqU8AxNNwkRfB5nHgb/BtVJpI0q/dkzVywPmdt2t3tNvZ1NlzApJRHhMMe6KyEGCzjrILcMOohKBSQJ3PdZYxqKubF2xef6KLC7qWShJJ8gpJ1XZD7f5mM4TypwUmo6wxpo086Q72sKTgHwE3wvCgC1wPeIMEzDru7gPs1F4n+UQo3wawRwPQQm/PpuOSUVZfbjJKBrvhC+1ObqirQUJmvfVBVIpIvhTKD2qOXnmRySjLncKepivTz9cckBjozPN1CYE3Ugki+U7tnjS4A/coZ2+PuQtNRlkbmT5ihzPYIy0jy0MT1TkSA70S4fuTug8HUwhP8i0ZkrU6wLm7GZa9ngHM7p7lXjc2bXiOj8G+RxcfGEolh+R7ofwSbXe03dO8mXVWRDJKeHiZs2WvEoSddRB+Dth7Uskh+Wrb/WEAmufl2r1MYDLKsnHpI/b7COxn4McQwrelUkPySYUsVt7QLKG8ZcjvAvLT1Yy1ZbDhg70iZK7qhIRg36hLuHcAlRiSL3fUtUHb/UW2mMWrvfIp2lOCZtNZhhUa00f+4Qj7uNQRDRIadivTxQW+rUugWp3k68BbtD0A6GGvJ6NMHZovZNkrQvkTTmCXig/oEgKVVFJIfiHU7s97fczdMmSfANhrEcqXOC57lRDsNfBiKiEk/2m7p2pv8nbtHpYazGr2CwKAP41QPleisJ9DCD+CSgjJn2r2DvDr3s5PF5465IAA2Isi00cWSRT2dboPB3egEkLyG+mXaFlHnRKAHvNqMsqUIULSVbEJNmfYfHgO9rqxySNOSgL2hMBwKh0k/6vdU9RXGVI0L3t3JVwwwnjr9Fl3wB+1S0ZZG5E8PFsCsH8H2CnPHMkfYVexcP4eQPojyxrrrQk2Y1KtY+5ua/dx6SNKuXXuUoC9BqCP0X16Lw23kfxTuqTB7fXJ6oe8+BDIKm6uvJAx9/2mDF2ZRGBfDd9EJYLk3+33ZE0fg23OfK2XQvlShPJ5Amr3XITyDPaa8CXD9rUi6Pmo1cfr5g5uT6WB5P/Ap2jvB6hHvJTBphC1+x8CYG/gJthUjV44ZFsrwp4KU4450l8E9iXa7gD1M5ZI0gvAVwP2QgHLXlkov8uUrqscnaRtLdiP6OIDJ1CtTvprAZ+qVelTNHu80VmHUD4vPHXoGQG1e8nYtOGHDZ9rtrXSMtYFuk8Ce9C3T/prddZZtO3Rfn8SsJZ7IZTPB+xC0lU1RKQOuxAyT7W/VZJTJASG6j6kfPCkv2ZnXTvAmuGF2r1+jC2vfLkA2GtDElUt3RtfpIsLnAnYaaiN9NfVqFRtH4Tz2V6o3XMErYQD7KPmqo62IOhsKe03aKdTLnjSX1sAldXu5ssdewfsxYC9mE2gcQW7MXVkGWrYihaE/SRqdcotRyJZw/kU9XWo3T++3Hx1o1ODjwNol89yn5467uCYhODiFgK9CqC/St8widTYWWd93LPmLgD7v8vslT/qrt3+lOWBrEmJ+sMtBPsaXcK9NFOORLqkdl+i7aBP1o4FtLsu5wGQ4RZru91pMsoX0/62Zcq8sJbooMvRxQeOgKlTjkRqAnyyphPC+WcuJyPt6JTgXa6SUb6a9vhPLQA7e+DDY7pP7u1E3yqJ5ESjFgV2MSRr3ga4JR6G8n+4eh7c3LTY3f/4/P4dzftwxsDXdAmDu+s+HExfKInkSoYU1U2o4Vd4ulgGofwxZ7DPS5u194Wk6dua8Smsi3UJgX3oWySRBAOvDYR/8zCU3+kM9i/SXsl9ddHju5ppOuxmOJi+PRJJbBs+RWsAvAc9COXPO3tE1JKM12vfT372sNcnzsQF7oJN9K2RSJ7U7snadvAUAHzUG8koJ1nCziRnzK6NS/lPiXdhDzwB0MeijU6r2UgkTxWarO6qT9Y8BYDPiUxGedAR9hmWyOzUjDdq51v+Wz3206HnvQR7uS7+3ofoUcsk0mVKlzT4itDFyu6GZM2/AXG+iFC+PMIytNAe9n+lTdtuyXizJintlQuT540+7B3QA/+hS7i3C31TJJKXgDekqHroUzQfiBiSa5KMclbaI9ssGXNqktNnl/7z80mXm5rqAvxfXVxQN10CDbGRSN5tw9uA/wggF4lIRnlxgs3raU/sTAPslvQ5FS8u/PuxywC9AJ6jSwjsRd8KidR8wPcE8B+ymltIMspwu2SUH6c/fyI946065neWPFOmT1BXeJQwMj7obYB+M30bJFLL1PAM+CqhySiNlpHliekzKwB6A3Ni6szCCYmhJ0QnoYgPegug96ZvgURqOeBv4EL6KiHJKCdbRp/8PP2lykbYF6W/lvfIgqgDImfHvQnQaRUbidTCsLcxpKhvcVfDI5Q/w5JRPpn2wP4lGa+XcbBXL13xfu7s1KfOGxI05QJhZzU6JYskkVoL+NBUDavhX3I2LMclo8x/Je2xI5aMOeUM9oyl75StWZ1wIH3V+6dnfG487X54Leg9gH4dXXESqRWls2iv0C28t5MhWfM04D4O1/HMlT/6QdpzJ7nOuYZly96tWLtmbvm6tYlV/01+tECfoKlykjsuVxcfOEOXMLgzYKeLTSJJAvqkwQBeOwlw73YEfnzKqNz49BeKuRC+duXKj3cD9AZmy6p3j5oXjM0dFa+sc2if/wLQ79fNHUxr0kkkSYb2ydrxAHyjPeyPWybkLMp4Ld8awme8Xbt29adHGmH/ev1nuQmZLx6ZMF9fMCo+qJ6bLJMBD6O57iSS5NvyWiW8kvXGh6UE186yPFKYljGn0hbCv3eKhe8M9PXr5hV/9+3i0xt/sJR9tnr2melJpv2ozd+EB9JVJJF8QPolWpbAUq5P0SwwpehOvJv2r4LGIbdVq+K2N9bq//v687Mbf0g9t2mjpeHnLctPpH8b/zLLMENXkETyqdpd1VafrL71/1KnP/9F+itHbb3wb5evXTO3lIO9asM3SYUAvQYu3vrb6q07stb1pStHIvmgWIrqJRlvqNIy3tpsDeGXv78XkNdaQ/j18/O//25JDqvVf9ycfmzrb18+vmP7+g501UgkH5XFMucqgJ7IeuERwmdzsNd//dWCEoB+nsG+aWPaDvgOulokko8rLf2tJ5cufTd7zZpPq7kQvhIhfK4NdEsd/NHmTRaaNEMi+boylr478stV8V8xyG298PMvfP998iFbCJ+Rv+XHZVN+2bSMQngSyde1enViT0D+DVerI4T/rAigszC+9pefM89nbVsXRleJRPIDff99UjtAngHXsTb7hg0L97NaffOm9PNbf/3y+PasdeF0lUgkP9G6tXPfA+gX1q+bV/fD96l/MNi3/LQ0L2vb2t8A+wi6QiSS38Ce+Ch87qv1nx3nOuUqEMIXAvRseChdIRLJT7R27dyRgD3nu2+XZHFj6/lbt64+uj1r/fdZWevupCtEIvmJ1q+e2+fr9Qt+RgjPxtbrf/pxaXHWtnWo2devz8paH0BXiETyI238IXUDA33TxjQWwp8A6A1wOmDvQ1eHRPIjAfRNDPbNm9LLt21dc8QK+/avPtm583/X09UhkfwK9tQUtvDlp80ZBQC9fOeO/+Xv3fP9qwcObKbcciSSn8G+ALBX/vrLqj2sVt+ze0PRweyfZh869DPBTiL5WRg/e/OmtIrtWWtP79j+Vdm+vT+cPXTw508IdhLJz7Rxo+XxLT8t28dqdRbCZx/4KQewxxHsJJKfafPmpY9mbVubDdhr9+zaUHjo4JYygp1E8kNt3bru7wC9goXw+/dtygboDYcP/fJJTs5v1BtPIvmTsrLWP85g37nj68qD2VtOA/SyY8ey5uTl/U6wk0h+CPuFPbu+PY5avfbokW2nT+fujzuXd4hyz5FI/gf7V6UHft+8k8H+x7GdBWfPHFoO2Gm6LInkT9q+fX2fXTs3fAvQy48c/jU/99Tvx87lHV5PsJNIfqijR7ddd+jgln/mHN2++uyZw7sA+6azeYfpQW4kkr+qsDCnU/7ZI0MA+z8Bez+6IiQSiUQikUgkEolEIpFIJBJJkBJmTr0iIXZau4QYc0ced4h/YXq7T2OjL3F87LT2TrZvsj+3Txsvnm+bBIfPZ+dzyfnFmNn7HYScn+3/M7edGzO5DZUGkn/DHjutU0KsORoFP4HHH8fHRD+REBs9w97xseb/4L14J/vY+zVuHx2OExAfG30z4LrqMs/3Fpzvv+w/B+cTc8n5xUTHAPiPBZzfR7b/zzwJv6vx++1xMebuMIFP8kPYY6LvQiHPB4gNzexC+Gt81kvwMAB284evzGgr8lw7Yd9HcZzSZji/Mhw7Cz/fwc3DgAjiaiodJD+r2c0TUMC3wYfgYhFwnINPOrhSwH51gOoYfi6Ii42OinvBfL1w2M3XoOZ+Dvv+Ch+GC6zH8z74pwH8S/g8mg1J8qs2+40IW4ejcEeikP8Nfh/eBdc4AYHVqh9gn+mAdZK98fqT8P/BifD38AkXQNVagY2JZmG4CufR3t25ol3dDmF8b3x2MD7PiP0ewjE+tMHp9HPe5c7J3m/Cy+ADLvZjN640fBbNiCT5p+Ji0WaNNY9Em/cgPwTm/8XNjL4VIbjzY8SYe8FoHpgjsP0c/NzPwc0HVRXA3YzPHAOLbivjc66LY5/Bc2y8dxI3kWt4bnBX4f07cKMZifN7Bb8fcXJu5fA89v9QySD5pVhbGgBm8IXIKPjJsKBsPKiJ28bHTMPNI/pu7PM29i9xGtrHRh9Hm3yMJ+eLfeW8sMdGb4Xbuji/Ngkx064G8JOxfbaTczuKm9X9VCpI/lvDx5if4QvlxcBud/Nog306w6MAzgkX7exjCTOnKcQOg2G/W5zA/qsr2P/c39wetbyZfb6TG9GniAauo1JB8lfYn/QW7Pb6eNb0W7H/dyx85wGrHnD+khAzdVBLws7V8qjhoxc5aW6w872HSgWJYBdZy38yM1qBGn6Dkxr+AhsjRzv86paE3dZfEf00N8rgeKyDqPn1VCpIBLtIoRZF2Gzt/XfSCRi9H3BFtDjsMeaJrO+Ar3mB44yhUkEi2D0QjnUt/LqTsf1qwD43ISa6ZwvDbsJ+OTzH2o7jDKVSQSLYPf2M2OhAHHOz09o91qyXCOyZaFb0p1IhMUWpFJ2ilPLbowb36URXQ+Kwx5g7wnOs7fSmgOGzzc8i5O/UUrAjmngc++U1HWs3zwLsHXl3Gh8c0DZKK+8UpZF3jdIoukepFQb8TMDf/7ikYGqxnUZ2dZQ6QIn35sBfYbv9UVrFRuz/BfbD6yi8g/s0GYrAvrCsPXwjjhGFfb7A/pvw8yy8Fr/HjdfIg/GzMwDwysT+KGVAG5Na1smkGtTTqJaPM6oUs00axRqTRn4APwvhk/CPcJxJrQjH69cZNbKOfOfv8nPwv5k0snZGtaKTSS3vit9vx3Gm4bjpRo18od12bfAZnXAN+uJ8nsG2m7BNEVzC/fwV2z8L944KGtDW4/97cJ8rTOqAdiatvAu+k0E43gz8Hm/SKtbj83+CN+L3Vfj5jkkrC8F7PYwaxZW47u14/rd2+H+6mYL6CxrKMWoV7XHsrvgf8bmyZ3HsRfj7J/gMXAj/gs9dhveewTYD8XcXVq58AXYOVL2LmWwW+LaWgB3bs+E3NnuwwmHYbS3+334OX6KsG8C8DaDJAGoEPBugATrFebzWANfB87jCA8gVPbFNGLyBe5/PpdhuTpRqUF97YKLu7dsOr9+BfR/FNjtd7F+Ec4iPUssHskLmcWFnNxaNrAtgUsIM8INwg3vLTwKMF02qAAVuFJ3cANXWqJJfj/364UZxN/a9H7C/jd+/x2uljcfEaxusEOAmgm3k8Kt4PdfNufxuUslC8Bmir0GkWtbGqA64AYBGAqSlcBncAFfDFdzvDpafBexL8LlR+PsueIDVGoUC7+GmJd9m1Mofc/O5HXDtbsF+U+E1cDn/Z11idm7p+Iww3JSvEXuTbQ3YUXNfg+Oynvl6ntl6W+G7mhv2hJlT22H7MfBuh+m8Wfhfw3mAkL8OuL6BTzoBrwSAvgRwUDvIRuD3BXit3AWojS4HsItR+/exfo5adj3gHY/XvxWwL3MV9k+GB6Gm8eiOH6lS3ArIn0VhPcDBUw0fhbfAX3O1+W44nwe0GhTu37D/JBynm9MaTB1wO0B+B9tvA+AlzsDFNt+alIO64ZiT8Pcm7lzc33jUivMAfqTY/x3gKAHdfEBUBNfBx+Gv8PrnAPpj2++KbLjKCYDF8B7OZ7ljXADs05xGEaqAq3HssfiM1XaQF8BZMIsivoe3wafgGp7PxM1P/gqA78sXXUgJdhus5gVOxt3P4b1hzQW7dbLPzOhu+IwQbLfS7v9l02TX4/+McFL7KVbCp1xAVwYn4abwNH7u5mp6Vuv/zHkbfJp73XHfAmsNr5GHw+/aRQuV8DH4AHyU+9sJ8Iq3cZPoKvaLAFwaOAnAVHDgnEJBWgAAJqBQyqI0AT1MStlAgDwS7z0Pf2dfE9v5EI4zAzUW73pmHE/D3Tiq3ICbhRvHC/h5zO61cq52P+div3oAvxnneZsI0IMBzo8cQHXsswHhg5FaxbUcmG2MqoHXAlwjtl0lsPZlPorrwNvhg+YGu5G9gG32cdsymDchnP8PPleDyuIOfI+3obmAm5DiIbw3n4O+3uEzCtn3hOZHb3YDkTLsAO0FF1Np9Z7Cbh1GizFPRHs7PCHGrG00wvVQNgUWkD+Ibdg03h12/+tBvP4+/sc+LkJd2R0AcQrAiodZu7vWATgG8TnOu+D3AeB0wK/hPAz7T8PradYooCmwuRzUFVb4tfJU+J/4PQr7jcFPI36yG8kqJ8DjRiQfJBL0oSjg39hqZyswZwDlrEiN7AYn4X5HvH8PCuEXToDfDeDGobbpyNOx1hWfNwLb/AdGO1hR6QRaVusXwGX4nB9QoOfAj2PfifBU3Ahew3u/Oanx0Y6X/1vQ/66RawHMBri2EVC8NpX9j7xNELXsHg74agfo2P4ldiH/HhznISe1eiec38tcLW4D3dYnMgSf28HJNUfTR2bmIg7Hm8oF7PsR3u8gadhjzNE49nknC28mu1sR5wL2Bm7lHesT+MXOLFz/A87niQb2sck1LmG/2OGmlfUExOGA6xfeNrhWsRDQDcd217IOJsdCg/f6WsNuVhvzQ4s2vtyENvRt2L69w/7t8d4A22fw7AtQRbRVb0VBs9jVtJWAaTFA7yHgJtGHiwYca+laeB18u4tr2Bn73gNon2Q3F94aWiP/He8/hu3uNKoGdWPX7WIIrBzY1cRuUmpFCg/wrHb+KkoZcJOb7/EqgPKFXWiO2lWejmvSzWWfg7WGVxx0AK6chfz4GQ5HooZWm4L68/ZfsJsWtjlvt+8+nG8kboTt3fR3tDeqEWlp5QU8wJfivCZLHPbhOHauE9j/xebVXwbsYs3+51PwD4gA3oiPnSZzN/wD6BSvO9TQtbgJZESpAm5x11sapRqEKEFxmAfYnwCsFkC3c15QFcwDbTeFJrBvEdj73AEw/Zvr0W4E5XSkWi54FpFJGdAXhXcfD6wVOHY0gOvgqvfbqJL3Asyf8+yPkF0WjP07u7j+7aJU8ruw7Xqe/XfhhjXUTQ94pAO0+aiN/+n2BqlVdMG2ax1gY230dwV0grJOvB0O4fhihOuCJpZEqQfhs+Uv8TYbNGgiDu7TRcKw3+N87bv5CdTsnTyFHbX0Nm7125+OMe+zTtxxDX29NXuNNVGGeSLa9x1cfHmKGLjwkp5xrSJWSPuJtQWtYX5T2DMB+u1u9w/s1w5g38/T/q+MCrzjGvc1s1yJArLZAZJ9qNkEd/aw/wHtYzNXm17ayaaRb4S7uxnmQw0tj+XpoNvqGBE5GybEts9xQ4L2x8jFZz/i6rwBzX+tIfCfwJxG7ThJYPg/k+vMswduCW5APVzcnNriMxOxXaXdPmdx03lCyP/aOGKC7ftxTQ9H4Etwg5vim7BHh7GkmB520DG4r4K7XOIYcxe8f3X8zGlD8PeT8G8c2HVOoC9iY/4JsVOv4l3HzwM7+/0FwbCoZToe2FcAdkEdTIgMVNj+iMP+NSgUGjdRSTvUyA87tLnrAM580T3ZGnknJ7U7A76/ANhjeGDfILzPQT4K++xxOEYBjvGs88/t3xXgzXfsUDNpA4KEjYvLJ3Nj4Pb7p+O63+z0OqkVbHx8i8M+u3EsUaMHrF2Pc3+Yp9+gBjeCxT4Ku8cddEKH3ubGTL4yPsZ8nzV0v3Sc/ZJUVXEzoyfHzYru6H3YtQE9Lwt2rSIA/l4s7ACsh3VSjENb2yiwY8sBtvY43kv8Q2jyJ5oddpVMxnX22R+jEjegN1xcdza2neE4lIWacfxlwL4gytWwo0Y+HducdNhnI85F9HPjjBrFMOy7n6d2347jdZMo7COctNlZD/3I5ob94ni7LQNumotcejsSYqf1bQbY0e5sCvt6+A5h+8vvwLZfioUdBY8B8oPjWDngnCF6Mo5K0Qa11kgn4+ULmxt2HKMf9tnI8/mfiIQ9HzXjUx7CzkLz11wP8Sle55mg8xXraRc/L0DWF7V7Bg/sh40aWbBEx9kf57LPOsL1M2C9s6Vg54AfxOXP42/Lx5gfbynYcXdWyJsVdrUiCLWDY+hdbVTJQzz5InG8frax+SbQfue6VpZ3w43ijVaAvYetY+wSUFhYvIh1XAposz/Fbg52+55kY/OuRh+4sXJHOJd5cr1xvCu5m4fj8U7gRjReirADyNe4NrMjXIvwWb1bEnYr8LHTxvLP6LN2GH7XUrCz8fu7mhN2hLhsbP00D+zhHsGukd9qtI17O06l3e2mCdCDG75radjb4/337MbXG70lElGP+34KRaLDbLrNJo2sv4vPu9E2xdU7sHORwvM8xzsJ2CdKDfYPX5nRia0qc5IhJvaTWdFXtjTsaMOzFFrHnWXXbQbY5WzMPa8VYB8Bn+cJ4x/3rGaX9wLwGTzQbnazH1tsk9LSsHNDbw9xs9LsYSlAeByD2r2ji6E3Ng/+Z4chu2ddrUvAe7diu+U8cH6NZlAvz26wike4RTKShz0u1sySRWbxQJULUMezKa0tDTv3/6c6C+Wbo2Zvy02hbVHYAZMKPtikg06teMdD2FFDy5eIhbY1YY/Syq4HHF9yY+T2wPwBT0e7uIv9kJh19Z1yYHfcDN6xWyhTAegWmgL7dXMTdvfmFtg4wr4Z7w306JprFZN5blYHcLw7pQQ7Axlh8d94OufqrTnbY823CzlOM8H+bgvC3jo1O2AKNDYdrqo3qeVfNc5UE6NIjew61G6f8UD7qVRh5zraDABkF8+c82JA/RE8BL8H4Ccb21YhGnrPrjYtxjVcJGQiC4sUsH0Cz+dk4xzGeQj7FOtimEuPty9KM6i/lGBHiH49jpnOA9RZ3AQeFd7B1yywP9KCYXzrtNkB5h3wSh5AcozKgNtFFzy1/EYAuqYJtCqFWcqwc9BMAiR7nSxjLeAWq2zmanxuaqxiO67fa6ag/tcIPU+cz4t2EcHFZgOO85wnN1jceB7l5uPbz+L7RkxCj+aGneWh43K+HWqSkio2enlCTHTfVob9QyfHXOs3sEeqAtiqq9k8gOQDtL97UPD6Yt8jjhNbTGqFQuqwcze/cVzv/HEnK9jYqrRj1qWuGpbMw7popaPITswJtok7TW4oaZFq55NxnAx3dsK+rzocqwI3rldEFvbmzUEXM20Aau/lDh1z9dyqM1ERTdzM6f28DTvOIdPJ0Ns//AZ2VpMAxAe51WUO69IVGdi/qzjYFYO4Jaj2wKbCV/kC7Nb2uFZ+A4B5mpv4Um2bwy6fC7PQ/e8I2SMBrBygXelJwTJqZAO47DNNx8a18rEiO+du4hbx2B+nyKSVaUUOh73L10PuDdhxnO7wLJ5kkyyN9EzWGy7yXEP5wYw+AHvSG38N34o4NssvIdbcdOVolEb+ssNCGJ+A3Va7K4J45sYzH4cfENxeVynaAs5HmsxgU8nvQ5OgnSewm9TCFvN4GfY7AUwqFxp/C6BGA55eeO9ab7Rd2TRX1LxvsBVqTae5yudGamQ3iogSgqypquyOY7SuqQjoJBKgRbxzxWOiv4Vv8vR/ZY9dTrA9dvkUD0yzhWaUdYhCJjhpX7Opr+08ON7DvA96jDG/gBq/Cx+snzksRPEl2DtaM5041MjcEtXVeF9QLzHLIQf/6jAnfoFRLbvR3YIgp7CjOdGiYbxW/iQXwnOLVFiNLvP6g/5wTA3XHHBcsXYW38VEZ+vZHW4aHbm58ZV2+5eZ1MJ74d3BjtfPw/0vA/bpTtauv4/3rvHkmC5gb0iYOXWgyGOxKbO/8xwrIyHGfEeTR1OxcVWAtdgBtGJ4ltC8YNaMJE1hz4bvFgh7P2y7hgf24YJqZbUsgEtcUdd0iariE/jWSBdprtgyX4D+uG39+cW15JvxmpLldRPQsdeLJZjkAbVM8DVUBgzgUlc5HiPB3Qo+/H+sp30DT7qpvSa17H4A2Avvd8fN4Cq4S2RwQEdjcEB7oavU+CII1MCzeLPdaORHAKwuSiXv6OKmxCIQBctqY5+TDsd8PlIjby+ywLPki985m0WG9y1xseYeQh6zjG3astowIXaaHDVjhkP6qVq8djo+dtoMvN8FsHt0A8G5POF8qao5Ie4F1+vhbUOA0Z1xDvfE2RbD1Do8ujkV59YfbmP/hbUdjy8foI0AWFt4YF0dpZb1H69x/qWxO/h4reI6NAMe49kf0YF8Avbv4Sx5IiC7Ikqt6IZtI7j0V5dmy9HIE9gyWRyjm7ueXoA5nsstV8fTdl7BMsvAvZq0+TXyG022fYvs2vtZ2Ha0kNoJ2/XE9qHwYd717KoAJba5ji/jDdfJiBuN7Hru/H/nOcZPiDDC8f7NJpXiar7su9y01/MuUkvtB1xrANln8HvwE/ibZYzR4fhq/GTJJe/A6zfhxtJVSK86G6pDEyGDN5+dRs7ScD2IY97GOuEcrhlLthEIr3RYIvvvSK3rvhF7fRob3RGQ94YnuXnmOWp489dsnTfguAfb9wGwN6I9ew2O0Q3ujlrwNrwuwzYskeM7Dser49rEX8XNjA4FbKJDbXzGlfEvmHvhZhGAc9ni4lxLcHOKwbncCeOczNdx59gt/oXp1+M8ce7RSvi/Divv6q1ppWPMiYB8gGPYPQgQTcLPFznQa/hhteaqewrQjQOUN/zZxpd1x2vD8d7fbGvZ5cedZKphoXwctn0QVl1yDmprlhwj/BqX+oo/gSVLNa3FNiw8VMv7u8qEwgHzm5MUUSzpJBtDnwiHwOFoU5tRMBfh9+LGSAAFeB1qaqO7ueXY9k7476zmhfc6zyUnZ/MAPoCfBJQj0Ka9motG2uBzBrJj4PUP8XMH1/TgOw67kSTDL7FjNLlhWGG1JnisF5hXzj70ZrXz7ywyYEtLcT1i4BCjOuBad1FJlHW5qzydZyiucY7+lzj+UzAbJQiB78P2s+xy1rFt9uFzn8X/IChdNQp1V7a6DH6KS9+cLzCrS50VkJjo9YA6Cb+/lRAb/Rr8ZrwtgeMeniQR52zZZM3PAtLeHtTivbB/BPwcPnceYNzufB77JU+YOQSvwu8fcOf4Gv7+CPuv4+k/YAknf8BN4mlEJj34wuaXneSOc+bzDHi7/YO5xJO1AvdnN5N0h05BE0A/LeIcWMbbh5zVkHYh9UguRVWeE3CqueG1M3b56ho4YOcARkGLd7iltZXC0lRf7ANYi/MbxJ1nB/hVMfvbjqH40knP9t/ZAhLRsPMPz+0D8K+bVINudtVfYUtiGXALPnuO7YbRZI5+Y167c/ARuyQb9bYpsYokXIOxLKefwJ7nNqiR1S5yt3vDDB6WHYb15P+DrSzzqL0/c2oH3CSm8TzIwVs+A3+Lz3gJ53iXqzbyE1ybutFZ3JLU1U6tCVDagTqSW39uf4xvePbbyNXuB7DPvEvPQWbA61u5fffC37n8fJvdrhe2LlVVKW5BaD4dTubyxlfxp41WHAeA61Cw/4uoIETMUJ1tnJo3USWfa3EuZ1HLx5lUsltt7Wy2fl7xtEjYzwCOD5w0KboY1dbQ/HsXqaLFuAS18Aew255x3CC74TrqAe9soy19dIXzYyq2YZsFOK4J7fNbxOTHRxjbEQX7aW9Cg9D+RJytVv+Sdbyx2XCAPASh/k3uss64GfvugePFee9czWfjbMknV+D3t1DTT8W1uBvu4KatyYZiFEo732NL/sg6ypxYOaCzHezdWefbJcdgud6b7KeQw0Hc+/0cCufVeP1ebv9AWwILF59vs+A2HcsbZ1LJbwHIKpMtk+tz8POcAZn8PryuRUEdYFQN7CI2hTFuDizJJWvzhgmwHp81DOfTF+fV8eJNCU0jgftbzTLo4nydzgw0BfVnIxM6a5Ry+bBbp9KirKgFD19qFd3ZGL4tZGdJLnCtG217Mk0oQL8H23k0HIaC3RZmk1LCRDocgLCJN8/D0+3fA9jB1ue4xZj74WZyHZst540RCxybrZC7y815meHJwv4H8zCc57043764EXXHeba7gsRb23eIUsquBGg2qwI6X85TZyT7fwb17wmoLFzNylJpx5vUMj1eC7j4pBer5cPx3t+MWvmb1iW9TRfR/DnurZHP9+hctAEd2Hr1i1YP7HA5T325HKGGbgNA2FLQK+EOUvm+2Lmw0QQilCQOLEQp1qfZ2NrcP6D2ZE+HaWdUDmzjGLVYh840sjaAvS1gb29iz2bTKpbwdrRpFMfoCpNIEhAbrkJNzUYhsrkaehteC/LgON0A/Ms87e18usokUuuD3h2Asl74HLtFJA97ejzsGwj/6rh8la40idTKoTtAZCvQDl3SoeYi57t72OU3Oy5MAfyf0dUmkVqzVtfIbkL4vsBxxdhl3kB64JgJDrPh7qerTSK1olALD+Sehe4wVCY+pbPdMW+xz1ZrZI931ihuoKtNIrVuzd4PcGY2Tfwgn+7pMVGLD2fr0u164h81qRU0NEQitWqb/d6+HQDn/3FDbZckkQCgQZFq4Y8+ZvP0I1ka7T/b61W4acyHe7LFSiQSqbVDeY18JMsj1+RJrBprbrlJJgaru6fwsnXlGvnd1gk43HPSAX06PICuMIkkldpdpbiarYSz5YlvMvvtlLWzTSOfjBpayZ6aGhkccIPVWtnNeG0QtmE3iyfg37h9zmM71OiKO+nqkkjSa7v3Mdp60EudTHkt4J66ugLwf2GztRNuDbfUtIqbjMNSUT8XqVX0pqtKIkk1nNfK2QMSY+BcDxa75CCE/wS1+XD2LDe6miSS1EN6bcDVgD0YfpF7rFOJC8CLjCzfnVb+HCDXRqplPekKkki+BTxLBtkFAN/AHtAYpZGFGTWyh1HzvwW/H6WVTYbHmtSyAYC9F7bp7GkeOpJv6P8Be4IG54ZeBpEAAAAldEVYdGRhdGU6Y3JlYXRlADIwMjEtMDQtMjNUMDg6NDQ6MDMrMDA6MDDd8THtAAAAJXRFWHRkYXRlOm1vZGlmeQAyMDIxLTA0LTIzVDA4OjQ0OjAzKzAwOjAwrKyJUQAAAABJRU5ErkJggg==;" vertex="1" parent="1">
          <mxGeometry x="-178.32" y="380" width="84.32" height="86" as="geometry" />
        </mxCell>
        <mxCell id="yJ8dsvp7RU6qVgDbuZnN-21" value="authdbd" style="text;html=1;align=center;verticalAlign=middle;resizable=0;points=[];autosize=1;strokeColor=none;fillColor=none;" vertex="1" parent="1">
          <mxGeometry x="-163.32" y="460" width="70" height="30" as="geometry" />
        </mxCell>
        <mxCell id="yJ8dsvp7RU6qVgDbuZnN-22" value="" style="shape=image;verticalLabelPosition=bottom;labelBackgroundColor=default;verticalAlign=top;aspect=fixed;imageAspect=0;image=data:image/png,iVBORw0KGgoAAAANSUhEUgAAAPsAAAEACAYAAAB1UADIAAAABGdBTUEAALGPC/xhBQAAACBjSFJNAAB6JgAAgIQAAPoAAACA6AAAdTAAAOpgAAA6mAAAF3CculE8AAAAB3RJTUUH5QQXCCwDHDiC2wAAAAZiS0dEAAAAAAAA+UO7fwAAOmlJREFUeNrtnQd8U+X6x2UjKDgABw6Q1SQObLPKDG1SaKFJUUBGiqj3qle9evXvvbZw3Sju1VYKomW0TVtGQZZecQCKA8pGKKsgUCjQXbrH//cmpxjSk+SckLYn8fl9Pr9P2+Sck9OT93ve513PueIK0l9KM1aaBszIjOpAV4JE8nfYVxlfhmV0JUgkf4f9S2OKOTNiFl0JEsmfQc+M6jpjlemnB5aFrTYkqQbRFSGR/LZWjwye8aUpZ9JSw+awhZoP6YqQSH7bXjfNAexlgP1nwP47avdAuiokkj9BvjaKdczpAPpOuH7KsjFbAXs5/FFYkroNXSESyT/a6W1mrI7qA8hXwA3M5pVjfwfoDfBhwD5elzSYgCeRfB70laYbEL6/AcgL7WA/wsFeY1ioXqBPUvagq0Ui+S7obAJNL4A+G4AXNILOPH1lZAUHO/NBAG9E7d6WrhqJ5Iuwr4zqBtDfsq/RL8K+KrLBDvbasIXqJfBtdNVIJN+r1TtzoBc7gm6D3Vg/epG20g74QtTujyCc70xXj0TyLdDf5KvRG/3gKmNdRPKwHDvYmXcYFqrupM46EknqkLPhtbVRvQH6YgBd6gx0DvbasSnDsx1gr0Movwq+iq4miSRd0NvOWB01ACCnwTWuQHcBu9WGJM0CQ5KqK11VEkmSoJsCADGr0avdge4OdrjCkKT+D4C/jq4uiSQd0NmEmYEAeJFQ0AXAzpyPcD4WwPekq0wiSQH2NVG3Ad5UMaALhJ35pGGh+kkK6Umk1q/Vb5qxymQRC7oI2OsA+37YDOC70BUnkVoPdFajV4oF3Qr7l8aa8WmjdriBvRH4w/AkAN+JrjyJ1IKanDnm+ikrw98DsEWegM655r60kG0CYGeuB+yn4SgA356+ARKpBfTAitFdJq0IexU/S6aujNgpZJjNC7DbhuQWqsvgSJpDTyI1syZlhnUC5JPhw3ADavg81O7lLQU7B/xe/UJVMIBvR98IidQ8oXtb1OgqQP4DA73R0asiD7Uk7Fwb/hf9QvUw+lZIpOao1VeE9YKXAPAae9inrgzf28KwM1fBawwLNffQN0MiebOdvnx0R5i108vsQedC+RIPO+ouB3bmC/CisCR1f/qGSCQvaeJygxFgFziCzrk2etW43a0AO3Mp/CaAv56+JRLpMhSVqbtiYqZBhvD9gBPQmeumrYzIYUkkWwF21mFXAD9uSFJdqUsaTF8aieRRjb7C0Bugr2G1twvYWShfhVD+TGvAzgF/wrBQFa5fqKQhORLJg9D9GrTT32Lj6a5At8K+YnR59Mpxh1oLds67EM4r6JsjkcSAnmm4EjX6gwA5xx3oje32qZkRLCuNmDH3mgkZ+iwvws68HOH8NfQNkkjC2untAHoIAP6VtccFwt4wJXNM4YOrjH+IgL0WkcNeL8POMtb+G233jvRNkkhuNGm5oe8DK8LSAHC1UNBtofyYUoTyeWJgn7x8dLaXYa+3paXWjKNvkkRyVasv1V05fumov01Yrj8tBvSLvfK2UL6kFWG3PnSCTbhB+70ffaMkEo8i03VXmDJ0/eGs8UtDz0xaMfqMWOCnZIbnIpQ/1cqwM5cbFqo/GJ2kpfY7ieQoY7quA/y6KWNUQ1TGqLyJywyiYZ+8YvQFhPIsT3xdK8POfBrh/AxDkqoDfbskkj3sGboBpnRdPoMdrrl/mb5YbLudGaF87oNfGoslADus/haw30V56EmkxrZ6Jmr1DN1cDnSrEcofm7Q8LF98KD/mFEL5ImnArqlGOP8KgO9G3zKJZKvVRwDwc/awI5Q/P3G5ocyDjrpKhPL5ApJatATszMcBe4g+iWbXkahW72TK0KWw0N0edrgWofwpBq8HofxBwHxBIrAzfwPTM+RIf/mOuSkA+6QD6LZQPiPkAEL5UtGh/IoxpxHKV0oI9uqwJPVj9G2T/rIypel6Auo1cD0f7KjxyyYuD6vyIJSvRyh/3E2vfEvCzhbLHBqdpKFHQpP+guH7UutQ22OAOpcfdJsRyu91zE4jxFMzI3a7abe3KOzW7DZJ6g/HJGkpOy3pL1arZ+juBMzfuALd1lEXcnLSCvG1++QV1rnypRKCnfkwrKFvn/RXqtU7A/Z/AuZCd7AzT1xuOO5BKN+AUH6fxGCvNCzUfK5PUnanUkD6a9Tq6bq7AfFPQkC3hfKh2z2BfWpm+EGJwc58CO13E5UCkt8rMkPX1ZihewEQVwmFHaF8EUL5Cg9C+XKE8mclBnt12EL1YkOS6hYqDSS/1ri04b0j00d+KxT0xjH3ScvD9nlQu7NklDudwF43dXnEqVaAnfkY1e4kv1ZEypC2EalDHxhrGXbOmD4yRwzs9y0LZbDXi132ilD+jLMhuGmZEfWtBDt7dlycnp79TvJXhVuGdoa/jbAMKx6XNuI4IK4THMovDalBKF/oQShf4SyDDWBvaCXYbdNoF2oMNI2W5J81u2XowIjUYeWAvWFs2vBCY7quQHi7fdSFicsN+z0I5cvNK8fmSBB2NtHmU/g6Khkkf4T9ZQY65zy03c+ICOWrEcqf8WCCTd2UzHCWvaZYarDDuYBdY0hS0RJYkv9ojEXbHYDvsIO9EqE8G2evFgr8+KUhpQjlxSe1yByTP31VZI4EYW8IS1K/DVOCC5IftddTh4YB8BI72Fkof8KYISqUL0Aon+NhKF8oSdgXas6EJgX1oBJC8p8QPnVoIgCvtocdPmNMH1ksslf+ggcZbOqnrow4++CXxnMShL1Bn6R5kEoIyT9ATxnSH2DvdQCduR6h/DkxE2wQyp9GKJ/rQSh/GqH8aSnCDmfpk5S0QIbkFyH80wD7PA/szNkI5UtFhPL5E5Ybznow5l6NUL7UfiWchGAvMSSpDFRSSD4OenD3iNRhywB1nRPYC4zpVtjrRcyVZ+Pt5aLnyq+MOIZQvkCCsNeEJWmWjEnSdqISQ/LdEN4yRO8khL9ohPJHWHtcRCjvUTJKhPJ5COVLJQg7c7YhSXM3lRiST0qXObh9hGXoiwC6zBXs8AGeHHSuXIpQvkTMs+Aa58qbV41j7fYqCcKeb1io/heVGpJvhvBpwbcD9mVuQGcuj/wzZ7zAUF5/zLNQPnw/QvkyCcJeC6cjlL+KSg7J5zQGIXy4Zeg+AbA3jE0bsV0M7AjlD05aEeZJqumiB1cZayQIO/POsCT1cCo5JJ/SKIu2qz5F+/Lo1OA8x8k0vE4dliNmYQzr0Ju43FDkQa98A0L5vWw9uwRhL4NnGZJUtDiG5DsypGj7wsvDUrQnwlOHFgio3esi00f+ITKU3+lJMsopmeH7JQh7tRX2JPUiwxfK3lSCSD4jfYpmCHwUwFePSR1SBJhr3ME+Nm34PjGwR2WMOoFQvtKDUL6CDcFNyxxbN3qhtqoVoC6AzwLsc4YkdYHhC3W9/nNVsX6B6oj+M+WG0PlBIVSCSD5Sq6vaG1I0kxnocMPolOBswFzqBvb6CMvwIlO6rkQM8Ajlj3mSnw6h/HbzynGV4YuH5DZf6mhNPnwSQB8H0HmGz9VlALoCPgnnAOxj+vnKU6HzlPVwA+eKkHlBz+rmD6Yxd5IP1OrJmm6A/S0GOue8cMvQSmG98iMOigvlPUtGOSVzzB+AvTAieViOF8AuNCRpjgHqbMMXqiOGz1XnAXO1/jNVIXwmdL4yFz4PkMvtoHblxQCectSRfKK9fgu82Q72WoTyOYC51g3slWPTRpwSF8qHFHuSjJI9Q25qZsROsbAD6KPwHkC9F0CfAMzlcGXofFUxgC6AC0VA7cy/w2oqSSRfgF0GV9rBzkL5XTyr3pqE8mMtw0sQyp8XmYxyryePiMJ+heFLhuQ4yRHH2tKAWv0r2tO7APQfALkGBthWmJmr4LrLBJvPNajZzbq5g2mdO0nCIfwSbTt9svYRe9CZ9SmaUoTyVQJC+YJx6SOOilz2ut+TITj20MhxKcN2oqbORXt6O6D+Be3oPQCtmIOunoO53qFd3ezGOXwRMi+Q1rmTJN1e72BI1n7sCDszQvkdAmCv4jLY1IhMRlngCewRi4bubUmIRfhIyDxlPypRJOmG8MnaTgD7az7Yw1K02YJm01mGnzOm6842dzJKicPeEJqoHKGfq6T8dCTJttevhE/ywQ5XIJTPEwD8+cj0kWdFJqM8K3aCjeRhn6ecCeApqQVJqrCr+zsBvbFXfqcA2KsRyrOFMZUi5sqXiE1GKXXYEcavg2m8nSTZmv1+F7DXI5TPExbKDztmFLESjiWjnCBygo0P1OzFoxZQJx1JsrBrXncBO/OF8NShRwUAn49QvkxEKF+HUL5cTDJKH4C9QZ+opFVwJMnW7GvdwF6OUF5QRx1C+ZOAuEJEKJ+LUP6UP8GOMP5lKlUkqcK+1w3sdWGpwWyevJDps4eMGboykckozwkdc/cF2EMTg1ZQqSJJEHRVN8B8zg3sbAiuAKF8jgDYS43pI4tEJqNk4+0X/KZmTww6QCWLJDnpkzV3AuYCd7DDZQjl84SF8sP3i5lgg1A+R2gySp+o2ecpz+vnKm+i0kWSFuwp2vsAcokA2FkozxJaFLmDPdwy7KiYzLNcMspSIckofQT2EoTyEVS6SFLriX+G9bYLgJ2F8qcRyp8SMn0WoXyuyAw2OUKSUfoI7GUh85QPU+kiSa1zLg6uEgI765UfnRpcKCCDTcPYtGFbPUhGecFPYK8C7B9T6SJJrWZPA8Q1AmFvAOw5Lh4LZe88kXnlGxDKF7rrlfcR2KsB+xdUukhSq9l/Ewr6xQw2qUMLbSmp3CSjTBt5SGQGG7fJKH0EdubfqHSRJCOdRdsZ8G4TCTtb9nqWtcvdwF471tYrLyYZ5Ul3ySh9CPYs3fzB9PAIkjQUmqztI2BCDV8ony3g8VCeJqPM8RPY94UkBg6gUkaShPRLtArAu18s7HBxuGVomYBQ3uvJKH0I9v36uUoFlTKSNGBP1oQC3BwPYG8YY7HOlXfXK181Nm1ErshQvhShfLkfwH44ZG7gUCplJGnAnqKd4CJphbsx970CYPc0GeUeP4D9ZMg85f1UykhSgZ09FOKUJ7AzI5QvaKZklAecDcH5GOwTqZSRJCFDsvZfgDbfU9jHpA7JaqZklNUI5fMJdhLJW7CnaF8ROC/eWSj/h6DZdOKTUZZNXG444OOw5wL2KVTKSH4BO1scg1D+mMBklOdEJqM8xzfBxodgzwfs/6JSRvIX2Fkyyl0CYK/hklFWiExGedqHYS8B7K9QKSP5C+z1YSnBpUIeAOmtZJQEO4nkGewvXybsrN1eDtiF5KcrQCh/wYNklFUEO4l0mdKnaCd6Os5u/xCJ0anBRwXMpmPJKE9cbjJKH4K9CLDPpFJG8ifYG8JSg9lTY4oEJqO8IDKUP28/5k5DbyRSa8LOklFaBOWVL/MgGWW+fTJKwF42bsnwAwQ7iSQO9gjAevxyYbeF8kPy2bJWAckof7/MZJTlppSROQQ7iSQG9mRtIEDN9gLsbNlrvpAMNuGWYTkik1GWOSSjJNhJJNGwe77ElS+UPxOeOjRXyAMgjWkjT4lMRnnELhklwU4iiZUhReVR8gpns+kQyl8QmIxym6hlr0tDDtklo/QV2A+FzgvSUikjSQh40TnovJGMks2TrxaZjLKA65X3FdgpeQVJcrBvZjPhvAT8WYTyRQKTUR70MBmlr8C+V5+ovINKGElKPfIWMamkBSx7zROYjPKAyAw2p7hklL4C+zZd0uCOVMJIUqrZZ8OV3oI9THgyymJTuq5YZDLKoz4EO6WSJkmuZn9C6OOfBLpUYDLKC2KTUd63TL+bTbAxpow8JHHQa0PmKdOpdJGkBXuydgQALfIi7CwZ5X6ByShPiwvlQ0onLNNnRSwZmi31xz+FJgZ9QKWLJCmNStX2BqDnvQl7WIp2n8AMNiXGdJ2YpBbMJeFLhh2VOOwXULM/RqWLJMFQXvO7N2HnklGeF5iMMkck7OWAXept9qLQeUGURpokyU66xd6GXWQySuFj7umjLoQvHnpY6impdPMH96aSRZJizf4Pb8OOUP4EmxorIJQ/KyYZJbYtHZ0ULPUlrtlUqkiSVGiKOtDbsHPJKHMEJqM871+wB2VQqSJJE/Ylqm6GZM0pL8PeLMkofQH2kHnK2VSqSBJts2s6wcu9DDtLRlmG2r1CAPA5QpNRShj2/JDEoMMhiYEHR80LHEWliiTNmj1V3Q7t9meaod1+QWAyykKE8mUShL0ermOTZDjXWWvuxKAjoz4N2jbq08BfR8UH7dXFB52H6+BaOF/3aeDVVKpIkpQuaXAbfbI6yMsz6RqTUeYITEb5h5BQvhlhr4HLQxOVZTD7WRMyN6hk1NzAfbqEoF/gXQD5OFwJN7iwBaY58SRJ98jfBDjXeb12tyWjLBRQux8WkozSC7AD6qBSwFwQkshCb2VxyFxlHcAuQE2dPSohcA/APqiLDywCtPVuwG7qhMAn4XZUokgShl3bFXDOaoZQvkBgrzxLRlnoLhmlSNhRSwflIew+BaDPwMWj5gZVAuo8QH0UQB8GoKdEA+3c5QBdq5s7uA2VKJJ0Q3mLti2Aj/T2PHm2om506pACIckox9qSUdZ6BHti0DlAfQw19NGQT4NOoU1dDpcC6jOoqU8AxNNwkRfB5nHgb/BtVJpI0q/dkzVywPmdt2t3tNvZ1NlzApJRHhMMe6KyEGCzjrILcMOohKBSQJ3PdZYxqKubF2xef6KLC7qWShJJ8gpJ1XZD7f5mM4TypwUmo6wxpo086Q72sKTgHwE3wvCgC1wPeIMEzDru7gPs1F4n+UQo3wawRwPQQm/PpuOSUVZfbjJKBrvhC+1ObqirQUJmvfVBVIpIvhTKD2qOXnmRySjLncKepivTz9cckBjozPN1CYE3Ugki+U7tnjS4A/coZ2+PuQtNRlkbmT5ihzPYIy0jy0MT1TkSA70S4fuTug8HUwhP8i0ZkrU6wLm7GZa9ngHM7p7lXjc2bXiOj8G+RxcfGEolh+R7ofwSbXe03dO8mXVWRDJKeHiZs2WvEoSddRB+Dth7Uskh+Wrb/WEAmufl2r1MYDLKsnHpI/b7COxn4McQwrelUkPySYUsVt7QLKG8ZcjvAvLT1Yy1ZbDhg70iZK7qhIRg36hLuHcAlRiSL3fUtUHb/UW2mMWrvfIp2lOCZtNZhhUa00f+4Qj7uNQRDRIadivTxQW+rUugWp3k68BbtD0A6GGvJ6NMHZovZNkrQvkTTmCXig/oEgKVVFJIfiHU7s97fczdMmSfANhrEcqXOC57lRDsNfBiKiEk/2m7p2pv8nbtHpYazGr2CwKAP41QPleisJ9DCD+CSgjJn2r2DvDr3s5PF5465IAA2Isi00cWSRT2dboPB3egEkLyG+mXaFlHnRKAHvNqMsqUIULSVbEJNmfYfHgO9rqxySNOSgL2hMBwKh0k/6vdU9RXGVI0L3t3JVwwwnjr9Fl3wB+1S0ZZG5E8PFsCsH8H2CnPHMkfYVexcP4eQPojyxrrrQk2Y1KtY+5ua/dx6SNKuXXuUoC9BqCP0X16Lw23kfxTuqTB7fXJ6oe8+BDIKm6uvJAx9/2mDF2ZRGBfDd9EJYLk3+33ZE0fg23OfK2XQvlShPJ5Amr3XITyDPaa8CXD9rUi6Pmo1cfr5g5uT6WB5P/Ap2jvB6hHvJTBphC1+x8CYG/gJthUjV44ZFsrwp4KU4450l8E9iXa7gD1M5ZI0gvAVwP2QgHLXlkov8uUrqscnaRtLdiP6OIDJ1CtTvprAZ+qVelTNHu80VmHUD4vPHXoGQG1e8nYtOGHDZ9rtrXSMtYFuk8Ce9C3T/prddZZtO3Rfn8SsJZ7IZTPB+xC0lU1RKQOuxAyT7W/VZJTJASG6j6kfPCkv2ZnXTvAmuGF2r1+jC2vfLkA2GtDElUt3RtfpIsLnAnYaaiN9NfVqFRtH4Tz2V6o3XMErYQD7KPmqo62IOhsKe03aKdTLnjSX1sAldXu5ssdewfsxYC9mE2gcQW7MXVkGWrYihaE/SRqdcotRyJZw/kU9XWo3T++3Hx1o1ODjwNol89yn5467uCYhODiFgK9CqC/St8widTYWWd93LPmLgD7v8vslT/qrt3+lOWBrEmJ+sMtBPsaXcK9NFOORLqkdl+i7aBP1o4FtLsu5wGQ4RZru91pMsoX0/62Zcq8sJbooMvRxQeOgKlTjkRqAnyyphPC+WcuJyPt6JTgXa6SUb6a9vhPLQA7e+DDY7pP7u1E3yqJ5ESjFgV2MSRr3ga4JR6G8n+4eh7c3LTY3f/4/P4dzftwxsDXdAmDu+s+HExfKInkSoYU1U2o4Vd4ulgGofwxZ7DPS5u194Wk6dua8Smsi3UJgX3oWySRBAOvDYR/8zCU3+kM9i/SXsl9ddHju5ppOuxmOJi+PRJJbBs+RWsAvAc9COXPO3tE1JKM12vfT372sNcnzsQF7oJN9K2RSJ7U7snadvAUAHzUG8koJ1nCziRnzK6NS/lPiXdhDzwB0MeijU6r2UgkTxWarO6qT9Y8BYDPiUxGedAR9hmWyOzUjDdq51v+Wz3206HnvQR7uS7+3ofoUcsk0mVKlzT4itDFyu6GZM2/AXG+iFC+PMIytNAe9n+lTdtuyXizJintlQuT540+7B3QA/+hS7i3C31TJJKXgDekqHroUzQfiBiSa5KMclbaI9ssGXNqktNnl/7z80mXm5rqAvxfXVxQN10CDbGRSN5tw9uA/wggF4lIRnlxgs3raU/sTAPslvQ5FS8u/PuxywC9AJ6jSwjsRd8KidR8wPcE8B+ymltIMspwu2SUH6c/fyI946065neWPFOmT1BXeJQwMj7obYB+M30bJFLL1PAM+CqhySiNlpHliekzKwB6A3Ni6szCCYmhJ0QnoYgPegug96ZvgURqOeBv4EL6KiHJKCdbRp/8PP2lykbYF6W/lvfIgqgDImfHvQnQaRUbidTCsLcxpKhvcVfDI5Q/w5JRPpn2wP4lGa+XcbBXL13xfu7s1KfOGxI05QJhZzU6JYskkVoL+NBUDavhX3I2LMclo8x/Je2xI5aMOeUM9oyl75StWZ1wIH3V+6dnfG487X54Leg9gH4dXXESqRWls2iv0C28t5MhWfM04D4O1/HMlT/6QdpzJ7nOuYZly96tWLtmbvm6tYlV/01+tECfoKlykjsuVxcfOEOXMLgzYKeLTSJJAvqkwQBeOwlw73YEfnzKqNz49BeKuRC+duXKj3cD9AZmy6p3j5oXjM0dFa+sc2if/wLQ79fNHUxr0kkkSYb2ydrxAHyjPeyPWybkLMp4Ld8awme8Xbt29adHGmH/ev1nuQmZLx6ZMF9fMCo+qJ6bLJMBD6O57iSS5NvyWiW8kvXGh6UE186yPFKYljGn0hbCv3eKhe8M9PXr5hV/9+3i0xt/sJR9tnr2melJpv2ozd+EB9JVJJF8QPolWpbAUq5P0SwwpehOvJv2r4LGIbdVq+K2N9bq//v687Mbf0g9t2mjpeHnLctPpH8b/zLLMENXkETyqdpd1VafrL71/1KnP/9F+itHbb3wb5evXTO3lIO9asM3SYUAvQYu3vrb6q07stb1pStHIvmgWIrqJRlvqNIy3tpsDeGXv78XkNdaQ/j18/O//25JDqvVf9ycfmzrb18+vmP7+g501UgkH5XFMucqgJ7IeuERwmdzsNd//dWCEoB+nsG+aWPaDvgOulokko8rLf2tJ5cufTd7zZpPq7kQvhIhfK4NdEsd/NHmTRaaNEMi+boylr478stV8V8xyG298PMvfP998iFbCJ+Rv+XHZVN+2bSMQngSyde1enViT0D+DVerI4T/rAigszC+9pefM89nbVsXRleJRPIDff99UjtAngHXsTb7hg0L97NaffOm9PNbf/3y+PasdeF0lUgkP9G6tXPfA+gX1q+bV/fD96l/MNi3/LQ0L2vb2t8A+wi6QiSS38Ce+Ch87qv1nx3nOuUqEMIXAvRseChdIRLJT7R27dyRgD3nu2+XZHFj6/lbt64+uj1r/fdZWevupCtEIvmJ1q+e2+fr9Qt+RgjPxtbrf/pxaXHWtnWo2devz8paH0BXiETyI238IXUDA33TxjQWwp8A6A1wOmDvQ1eHRPIjAfRNDPbNm9LLt21dc8QK+/avPtm583/X09UhkfwK9tQUtvDlp80ZBQC9fOeO/+Xv3fP9qwcObKbcciSSn8G+ALBX/vrLqj2sVt+ze0PRweyfZh869DPBTiL5WRg/e/OmtIrtWWtP79j+Vdm+vT+cPXTw508IdhLJz7Rxo+XxLT8t28dqdRbCZx/4KQewxxHsJJKfafPmpY9mbVubDdhr9+zaUHjo4JYygp1E8kNt3bru7wC9goXw+/dtygboDYcP/fJJTs5v1BtPIvmTsrLWP85g37nj68qD2VtOA/SyY8ey5uTl/U6wk0h+CPuFPbu+PY5avfbokW2nT+fujzuXd4hyz5FI/gf7V6UHft+8k8H+x7GdBWfPHFoO2Gm6LInkT9q+fX2fXTs3fAvQy48c/jU/99Tvx87lHV5PsJNIfqijR7ddd+jgln/mHN2++uyZw7sA+6azeYfpQW4kkr+qsDCnU/7ZI0MA+z8Bez+6IiQSiUQikUgkEolEIpFIJBJJkBJmTr0iIXZau4QYc0ced4h/YXq7T2OjL3F87LT2TrZvsj+3Txsvnm+bBIfPZ+dzyfnFmNn7HYScn+3/M7edGzO5DZUGkn/DHjutU0KsORoFP4HHH8fHRD+REBs9w97xseb/4L14J/vY+zVuHx2OExAfG30z4LrqMs/3Fpzvv+w/B+cTc8n5xUTHAPiPBZzfR7b/zzwJv6vx++1xMebuMIFP8kPYY6LvQiHPB4gNzexC+Gt81kvwMAB284evzGgr8lw7Yd9HcZzSZji/Mhw7Cz/fwc3DgAjiaiodJD+r2c0TUMC3wYfgYhFwnINPOrhSwH51gOoYfi6Ii42OinvBfL1w2M3XoOZ+Dvv+Ch+GC6zH8z74pwH8S/g8mg1J8qs2+40IW4ejcEeikP8Nfh/eBdc4AYHVqh9gn+mAdZK98fqT8P/BifD38AkXQNVagY2JZmG4CufR3t25ol3dDmF8b3x2MD7PiP0ewjE+tMHp9HPe5c7J3m/Cy+ADLvZjN640fBbNiCT5p+Ji0WaNNY9Em/cgPwTm/8XNjL4VIbjzY8SYe8FoHpgjsP0c/NzPwc0HVRXA3YzPHAOLbivjc66LY5/Bc2y8dxI3kWt4bnBX4f07cKMZifN7Bb8fcXJu5fA89v9QySD5pVhbGgBm8IXIKPjJsKBsPKiJ28bHTMPNI/pu7PM29i9xGtrHRh9Hm3yMJ+eLfeW8sMdGb4Xbuji/Ngkx064G8JOxfbaTczuKm9X9VCpI/lvDx5if4QvlxcBud/Nog306w6MAzgkX7exjCTOnKcQOg2G/W5zA/qsr2P/c39wetbyZfb6TG9GniAauo1JB8lfYn/QW7Pb6eNb0W7H/dyx85wGrHnD+khAzdVBLws7V8qjhoxc5aW6w872HSgWJYBdZy38yM1qBGn6Dkxr+AhsjRzv86paE3dZfEf00N8rgeKyDqPn1VCpIBLtIoRZF2Gzt/XfSCRi9H3BFtDjsMeaJrO+Ar3mB44yhUkEi2D0QjnUt/LqTsf1qwD43ISa6ZwvDbsJ+OTzH2o7jDKVSQSLYPf2M2OhAHHOz09o91qyXCOyZaFb0p1IhMUWpFJ2ilPLbowb36URXQ+Kwx5g7wnOs7fSmgOGzzc8i5O/UUrAjmngc++U1HWs3zwLsHXl3Gh8c0DZKK+8UpZF3jdIoukepFQb8TMDf/7ikYGqxnUZ2dZQ6QIn35sBfYbv9UVrFRuz/BfbD6yi8g/s0GYrAvrCsPXwjjhGFfb7A/pvw8yy8Fr/HjdfIg/GzMwDwysT+KGVAG5Na1smkGtTTqJaPM6oUs00axRqTRn4APwvhk/CPcJxJrQjH69cZNbKOfOfv8nPwv5k0snZGtaKTSS3vit9vx3Gm4bjpRo18od12bfAZnXAN+uJ8nsG2m7BNEVzC/fwV2z8L944KGtDW4/97cJ8rTOqAdiatvAu+k0E43gz8Hm/SKtbj83+CN+L3Vfj5jkkrC8F7PYwaxZW47u14/rd2+H+6mYL6CxrKMWoV7XHsrvgf8bmyZ3HsRfj7J/gMXAj/gs9dhveewTYD8XcXVq58AXYOVL2LmWwW+LaWgB3bs+E3NnuwwmHYbS3+334OX6KsG8C8DaDJAGoEPBugATrFebzWANfB87jCA8gVPbFNGLyBe5/PpdhuTpRqUF97YKLu7dsOr9+BfR/FNjtd7F+Ec4iPUssHskLmcWFnNxaNrAtgUsIM8INwg3vLTwKMF02qAAVuFJ3cANXWqJJfj/364UZxN/a9H7C/jd+/x2uljcfEaxusEOAmgm3k8Kt4PdfNufxuUslC8Bmir0GkWtbGqA64AYBGAqSlcBncAFfDFdzvDpafBexL8LlR+PsueIDVGoUC7+GmJd9m1Mofc/O5HXDtbsF+U+E1cDn/Z11idm7p+Iww3JSvEXuTbQ3YUXNfg+Oynvl6ntl6W+G7mhv2hJlT22H7MfBuh+m8Wfhfw3mAkL8OuL6BTzoBrwSAvgRwUDvIRuD3BXit3AWojS4HsItR+/exfo5adj3gHY/XvxWwL3MV9k+GB6Gm8eiOH6lS3ArIn0VhPcDBUw0fhbfAX3O1+W44nwe0GhTu37D/JBynm9MaTB1wO0B+B9tvA+AlzsDFNt+alIO64ZiT8Pcm7lzc33jUivMAfqTY/x3gKAHdfEBUBNfBx+Gv8PrnAPpj2++KbLjKCYDF8B7OZ7ljXADs05xGEaqAq3HssfiM1XaQF8BZMIsivoe3wafgGp7PxM1P/gqA78sXXUgJdhus5gVOxt3P4b1hzQW7dbLPzOhu+IwQbLfS7v9l02TX4/+McFL7KVbCp1xAVwYn4abwNH7u5mp6Vuv/zHkbfJp73XHfAmsNr5GHw+/aRQuV8DH4AHyU+9sJ8Iq3cZPoKvaLAFwaOAnAVHDgnEJBWgAAJqBQyqI0AT1MStlAgDwS7z0Pf2dfE9v5EI4zAzUW73pmHE/D3Tiq3ICbhRvHC/h5zO61cq52P+div3oAvxnneZsI0IMBzo8cQHXsswHhg5FaxbUcmG2MqoHXAlwjtl0lsPZlPorrwNvhg+YGu5G9gG32cdsymDchnP8PPleDyuIOfI+3obmAm5DiIbw3n4O+3uEzCtn3hOZHb3YDkTLsAO0FF1Np9Z7Cbh1GizFPRHs7PCHGrG00wvVQNgUWkD+Ibdg03h12/+tBvP4+/sc+LkJd2R0AcQrAiodZu7vWATgG8TnOu+D3AeB0wK/hPAz7T8PradYooCmwuRzUFVb4tfJU+J/4PQr7jcFPI36yG8kqJ8DjRiQfJBL0oSjg39hqZyswZwDlrEiN7AYn4X5HvH8PCuEXToDfDeDGobbpyNOx1hWfNwLb/AdGO1hR6QRaVusXwGX4nB9QoOfAj2PfifBU3Ahew3u/Oanx0Y6X/1vQ/66RawHMBri2EVC8NpX9j7xNELXsHg74agfo2P4ldiH/HhznISe1eiec38tcLW4D3dYnMgSf28HJNUfTR2bmIg7Hm8oF7PsR3u8gadhjzNE49nknC28mu1sR5wL2Bm7lHesT+MXOLFz/A87niQb2sck1LmG/2OGmlfUExOGA6xfeNrhWsRDQDcd217IOJsdCg/f6WsNuVhvzQ4s2vtyENvRt2L69w/7t8d4A22fw7AtQRbRVb0VBs9jVtJWAaTFA7yHgJtGHiwYca+laeB18u4tr2Bn73gNon2Q3F94aWiP/He8/hu3uNKoGdWPX7WIIrBzY1cRuUmpFCg/wrHb+KkoZcJOb7/EqgPKFXWiO2lWejmvSzWWfg7WGVxx0AK6chfz4GQ5HooZWm4L68/ZfsJsWtjlvt+8+nG8kboTt3fR3tDeqEWlp5QU8wJfivCZLHPbhOHauE9j/xebVXwbsYs3+51PwD4gA3oiPnSZzN/wD6BSvO9TQtbgJZESpAm5x11sapRqEKEFxmAfYnwCsFkC3c15QFcwDbTeFJrBvEdj73AEw/Zvr0W4E5XSkWi54FpFJGdAXhXcfD6wVOHY0gOvgqvfbqJL3Asyf8+yPkF0WjP07u7j+7aJU8ruw7Xqe/XfhhjXUTQ94pAO0+aiN/+n2BqlVdMG2ax1gY230dwV0grJOvB0O4fhihOuCJpZEqQfhs+Uv8TYbNGgiDu7TRcKw3+N87bv5CdTsnTyFHbX0Nm7125+OMe+zTtxxDX29NXuNNVGGeSLa9x1cfHmKGLjwkp5xrSJWSPuJtQWtYX5T2DMB+u1u9w/s1w5g38/T/q+MCrzjGvc1s1yJArLZAZJ9qNkEd/aw/wHtYzNXm17ayaaRb4S7uxnmQw0tj+XpoNvqGBE5GybEts9xQ4L2x8jFZz/i6rwBzX+tIfCfwJxG7ThJYPg/k+vMswduCW5APVzcnNriMxOxXaXdPmdx03lCyP/aOGKC7ftxTQ9H4Etwg5vim7BHh7GkmB520DG4r4K7XOIYcxe8f3X8zGlD8PeT8G8c2HVOoC9iY/4JsVOv4l3HzwM7+/0FwbCoZToe2FcAdkEdTIgMVNj+iMP+NSgUGjdRSTvUyA87tLnrAM580T3ZGnknJ7U7A76/ANhjeGDfILzPQT4K++xxOEYBjvGs88/t3xXgzXfsUDNpA4KEjYvLJ3Nj4Pb7p+O63+z0OqkVbHx8i8M+u3EsUaMHrF2Pc3+Yp9+gBjeCxT4Ku8cddEKH3ubGTL4yPsZ8nzV0v3Sc/ZJUVXEzoyfHzYru6H3YtQE9Lwt2rSIA/l4s7ACsh3VSjENb2yiwY8sBtvY43kv8Q2jyJ5oddpVMxnX22R+jEjegN1xcdza2neE4lIWacfxlwL4gytWwo0Y+HducdNhnI85F9HPjjBrFMOy7n6d2347jdZMo7COctNlZD/3I5ob94ni7LQNumotcejsSYqf1bQbY0e5sCvt6+A5h+8vvwLZfioUdBY8B8oPjWDngnCF6Mo5K0Qa11kgn4+ULmxt2HKMf9tnI8/mfiIQ9HzXjUx7CzkLz11wP8Sle55mg8xXraRc/L0DWF7V7Bg/sh40aWbBEx9kf57LPOsL1M2C9s6Vg54AfxOXP42/Lx5gfbynYcXdWyJsVdrUiCLWDY+hdbVTJQzz5InG8frax+SbQfue6VpZ3w43ijVaAvYetY+wSUFhYvIh1XAposz/Fbg52+55kY/OuRh+4sXJHOJd5cr1xvCu5m4fj8U7gRjReirADyNe4NrMjXIvwWb1bEnYr8LHTxvLP6LN2GH7XUrCz8fu7mhN2hLhsbP00D+zhHsGukd9qtI17O06l3e2mCdCDG75radjb4/337MbXG70lElGP+34KRaLDbLrNJo2sv4vPu9E2xdU7sHORwvM8xzsJ2CdKDfYPX5nRia0qc5IhJvaTWdFXtjTsaMOzFFrHnWXXbQbY5WzMPa8VYB8Bn+cJ4x/3rGaX9wLwGTzQbnazH1tsk9LSsHNDbw9xs9LsYSlAeByD2r2ji6E3Ng/+Z4chu2ddrUvAe7diu+U8cH6NZlAvz26wike4RTKShz0u1sySRWbxQJULUMezKa0tDTv3/6c6C+Wbo2Zvy02hbVHYAZMKPtikg06teMdD2FFDy5eIhbY1YY/Syq4HHF9yY+T2wPwBT0e7uIv9kJh19Z1yYHfcDN6xWyhTAegWmgL7dXMTdvfmFtg4wr4Z7w306JprFZN5blYHcLw7pQQ7Axlh8d94OufqrTnbY823CzlOM8H+bgvC3jo1O2AKNDYdrqo3qeVfNc5UE6NIjew61G6f8UD7qVRh5zraDABkF8+c82JA/RE8BL8H4Ccb21YhGnrPrjYtxjVcJGQiC4sUsH0Cz+dk4xzGeQj7FOtimEuPty9KM6i/lGBHiH49jpnOA9RZ3AQeFd7B1yywP9KCYXzrtNkB5h3wSh5AcozKgNtFFzy1/EYAuqYJtCqFWcqwc9BMAiR7nSxjLeAWq2zmanxuaqxiO67fa6ag/tcIPU+cz4t2EcHFZgOO85wnN1jceB7l5uPbz+L7RkxCj+aGneWh43K+HWqSkio2enlCTHTfVob9QyfHXOs3sEeqAtiqq9k8gOQDtL97UPD6Yt8jjhNbTGqFQuqwcze/cVzv/HEnK9jYqrRj1qWuGpbMw7popaPITswJtok7TW4oaZFq55NxnAx3dsK+rzocqwI3rldEFvbmzUEXM20Aau/lDh1z9dyqM1ERTdzM6f28DTvOIdPJ0Ns//AZ2VpMAxAe51WUO69IVGdi/qzjYFYO4Jaj2wKbCV/kC7Nb2uFZ+A4B5mpv4Um2bwy6fC7PQ/e8I2SMBrBygXelJwTJqZAO47DNNx8a18rEiO+du4hbx2B+nyKSVaUUOh73L10PuDdhxnO7wLJ5kkyyN9EzWGy7yXEP5wYw+AHvSG38N34o4NssvIdbcdOVolEb+ssNCGJ+A3Va7K4J45sYzH4cfENxeVynaAs5HmsxgU8nvQ5OgnSewm9TCFvN4GfY7AUwqFxp/C6BGA55eeO9ab7Rd2TRX1LxvsBVqTae5yudGamQ3iogSgqypquyOY7SuqQjoJBKgRbxzxWOiv4Vv8vR/ZY9dTrA9dvkUD0yzhWaUdYhCJjhpX7Opr+08ON7DvA96jDG/gBq/Cx+snzksRPEl2DtaM5041MjcEtXVeF9QLzHLIQf/6jAnfoFRLbvR3YIgp7CjOdGiYbxW/iQXwnOLVFiNLvP6g/5wTA3XHHBcsXYW38VEZ+vZHW4aHbm58ZV2+5eZ1MJ74d3BjtfPw/0vA/bpTtauv4/3rvHkmC5gb0iYOXWgyGOxKbO/8xwrIyHGfEeTR1OxcVWAtdgBtGJ4ltC8YNaMJE1hz4bvFgh7P2y7hgf24YJqZbUsgEtcUdd0iariE/jWSBdprtgyX4D+uG39+cW15JvxmpLldRPQsdeLJZjkAbVM8DVUBgzgUlc5HiPB3Qo+/H+sp30DT7qpvSa17H4A2Avvd8fN4Cq4S2RwQEdjcEB7oavU+CII1MCzeLPdaORHAKwuSiXv6OKmxCIQBctqY5+TDsd8PlIjby+ywLPki985m0WG9y1xseYeQh6zjG3astowIXaaHDVjhkP6qVq8djo+dtoMvN8FsHt0A8G5POF8qao5Ie4F1+vhbUOA0Z1xDvfE2RbD1Do8ujkV59YfbmP/hbUdjy8foI0AWFt4YF0dpZb1H69x/qWxO/h4reI6NAMe49kf0YF8Avbv4Sx5IiC7Ikqt6IZtI7j0V5dmy9HIE9gyWRyjm7ueXoA5nsstV8fTdl7BMsvAvZq0+TXyG022fYvs2vtZ2Ha0kNoJ2/XE9qHwYd717KoAJba5ji/jDdfJiBuN7Hru/H/nOcZPiDDC8f7NJpXiar7su9y01/MuUkvtB1xrANln8HvwE/ibZYzR4fhq/GTJJe/A6zfhxtJVSK86G6pDEyGDN5+dRs7ScD2IY97GOuEcrhlLthEIr3RYIvvvSK3rvhF7fRob3RGQ94YnuXnmOWp489dsnTfguAfb9wGwN6I9ew2O0Q3ujlrwNrwuwzYskeM7Dser49rEX8XNjA4FbKJDbXzGlfEvmHvhZhGAc9ni4lxLcHOKwbncCeOczNdx59gt/oXp1+M8ce7RSvi/Divv6q1ppWPMiYB8gGPYPQgQTcLPFznQa/hhteaqewrQjQOUN/zZxpd1x2vD8d7fbGvZ5cedZKphoXwctn0QVl1yDmprlhwj/BqX+oo/gSVLNa3FNiw8VMv7u8qEwgHzm5MUUSzpJBtDnwiHwOFoU5tRMBfh9+LGSAAFeB1qaqO7ueXY9k7476zmhfc6zyUnZ/MAPoCfBJQj0Ka9motG2uBzBrJj4PUP8XMH1/TgOw67kSTDL7FjNLlhWGG1JnisF5hXzj70ZrXz7ywyYEtLcT1i4BCjOuBad1FJlHW5qzydZyiucY7+lzj+UzAbJQiB78P2s+xy1rFt9uFzn8X/IChdNQp1V7a6DH6KS9+cLzCrS50VkJjo9YA6Cb+/lRAb/Rr8ZrwtgeMeniQR52zZZM3PAtLeHtTivbB/BPwcPnceYNzufB77JU+YOQSvwu8fcOf4Gv7+CPuv4+k/YAknf8BN4mlEJj34wuaXneSOc+bzDHi7/YO5xJO1AvdnN5N0h05BE0A/LeIcWMbbh5zVkHYh9UguRVWeE3CqueG1M3b56ho4YOcARkGLd7iltZXC0lRf7ANYi/MbxJ1nB/hVMfvbjqH40knP9t/ZAhLRsPMPz+0D8K+bVINudtVfYUtiGXALPnuO7YbRZI5+Y167c/ARuyQb9bYpsYokXIOxLKefwJ7nNqiR1S5yt3vDDB6WHYb15P+DrSzzqL0/c2oH3CSm8TzIwVs+A3+Lz3gJ53iXqzbyE1ybutFZ3JLU1U6tCVDagTqSW39uf4xvePbbyNXuB7DPvEvPQWbA61u5fffC37n8fJvdrhe2LlVVKW5BaD4dTubyxlfxp41WHAeA61Cw/4uoIETMUJ1tnJo3USWfa3EuZ1HLx5lUsltt7Wy2fl7xtEjYzwCOD5w0KboY1dbQ/HsXqaLFuAS18Aew255x3CC74TrqAe9soy19dIXzYyq2YZsFOK4J7fNbxOTHRxjbEQX7aW9Cg9D+RJytVv+Sdbyx2XCAPASh/k3uss64GfvugePFee9czWfjbMknV+D3t1DTT8W1uBvu4KatyYZiFEo732NL/sg6ypxYOaCzHezdWefbJcdgud6b7KeQw0Hc+/0cCufVeP1ebv9AWwILF59vs+A2HcsbZ1LJbwHIKpMtk+tz8POcAZn8PryuRUEdYFQN7CI2hTFuDizJJWvzhgmwHp81DOfTF+fV8eJNCU0jgftbzTLo4nydzgw0BfVnIxM6a5Ry+bBbp9KirKgFD19qFd3ZGL4tZGdJLnCtG217Mk0oQL8H23k0HIaC3RZmk1LCRDocgLCJN8/D0+3fA9jB1ue4xZj74WZyHZst540RCxybrZC7y815meHJwv4H8zCc57043764EXXHeba7gsRb23eIUsquBGg2qwI6X85TZyT7fwb17wmoLFzNylJpx5vUMj1eC7j4pBer5cPx3t+MWvmb1iW9TRfR/DnurZHP9+hctAEd2Hr1i1YP7HA5T325HKGGbgNA2FLQK+EOUvm+2Lmw0QQilCQOLEQp1qfZ2NrcP6D2ZE+HaWdUDmzjGLVYh840sjaAvS1gb29iz2bTKpbwdrRpFMfoCpNIEhAbrkJNzUYhsrkaehteC/LgON0A/Ms87e18usokUuuD3h2Asl74HLtFJA97ejzsGwj/6rh8la40idTKoTtAZCvQDl3SoeYi57t72OU3Oy5MAfyf0dUmkVqzVtfIbkL4vsBxxdhl3kB64JgJDrPh7qerTSK1olALD+Sehe4wVCY+pbPdMW+xz1ZrZI931ihuoKtNIrVuzd4PcGY2Tfwgn+7pMVGLD2fr0u164h81qRU0NEQitWqb/d6+HQDn/3FDbZckkQCgQZFq4Y8+ZvP0I1ka7T/b61W4acyHe7LFSiQSqbVDeY18JMsj1+RJrBprbrlJJgaru6fwsnXlGvnd1gk43HPSAX06PICuMIkkldpdpbiarYSz5YlvMvvtlLWzTSOfjBpayZ6aGhkccIPVWtnNeG0QtmE3iyfg37h9zmM71OiKO+nqkkjSa7v3Mdp60EudTHkt4J66ugLwf2GztRNuDbfUtIqbjMNSUT8XqVX0pqtKIkk1nNfK2QMSY+BcDxa75CCE/wS1+XD2LDe6miSS1EN6bcDVgD0YfpF7rFOJC8CLjCzfnVb+HCDXRqplPekKkki+BTxLBtkFAN/AHtAYpZGFGTWyh1HzvwW/H6WVTYbHmtSyAYC9F7bp7GkeOpJv6P8Be4IG54ZeBpEAAAAldEVYdGRhdGU6Y3JlYXRlADIwMjEtMDQtMjNUMDg6NDQ6MDMrMDA6MDDd8THtAAAAJXRFWHRkYXRlOm1vZGlmeQAyMDIxLTA0LTIzVDA4OjQ0OjAzKzAwOjAwrKyJUQAAAABJRU5ErkJggg==;" vertex="1" parent="1">
          <mxGeometry x="-177.64000000000001" y="500" width="84.32" height="86" as="geometry" />
        </mxCell>
        <mxCell id="yJ8dsvp7RU6qVgDbuZnN-23" value="yankibd" style="text;html=1;align=center;verticalAlign=middle;resizable=0;points=[];autosize=1;strokeColor=none;fillColor=none;" vertex="1" parent="1">
          <mxGeometry x="-157.64000000000001" y="580" width="60" height="30" as="geometry" />
        </mxCell>
        <mxCell id="yJ8dsvp7RU6qVgDbuZnN-24" value="ms-yanki&lt;div&gt;&lt;br&gt;&lt;/div&gt;" style="shape=module;align=left;spacingLeft=20;align=center;verticalAlign=top;whiteSpace=wrap;html=1;" vertex="1" parent="1">
          <mxGeometry x="15" y="430" width="140" height="50" as="geometry" />
        </mxCell>
        <mxCell id="yJ8dsvp7RU6qVgDbuZnN-25" value="ms-&lt;span id=&quot;docs-internal-guid-df09590a-7fff-4ff2-2458-dcb06eaa5cdf&quot;&gt;&lt;span style=&quot;font-family: Arial, sans-serif; background-color: transparent; font-variant-numeric: normal; font-variant-east-asian: normal; font-variant-alternates: normal; font-variant-position: normal; font-variant-emoji: normal; vertical-align: baseline; white-space-collapse: preserve;&quot;&gt;&lt;font&gt;authentication&lt;/font&gt;&lt;/span&gt;&lt;/span&gt;&lt;div&gt;&lt;br&gt;&lt;/div&gt;" style="shape=module;align=left;spacingLeft=20;align=center;verticalAlign=top;whiteSpace=wrap;html=1;" vertex="1" parent="1">
          <mxGeometry x="380" y="190" width="140" height="50" as="geometry" />
        </mxCell>
        <mxCell id="yJ8dsvp7RU6qVgDbuZnN-26" style="rounded=0;orthogonalLoop=1;jettySize=auto;html=1;endArrow=none;endFill=0;targetPerimeterSpacing=7;sourcePerimeterSpacing=4;curved=0;orthogonal=0;linecap=round;" edge="1" parent="1">
          <mxGeometry relative="1" as="geometry">
            <mxPoint x="339" y="354" as="sourcePoint" />
            <mxPoint x="339" y="500" as="targetPoint" />
            <Array as="points">
              <mxPoint x="339" y="354" />
              <mxPoint x="349" y="354" />
              <mxPoint x="349" y="454" />
              <mxPoint x="349" y="500" />
            </Array>
          </mxGeometry>
        </mxCell>
        <mxCell id="yJ8dsvp7RU6qVgDbuZnN-27" value="&lt;span id=&quot;docs-internal-guid-428a91fe-7fff-6120-894f-303626230ea1&quot;&gt;&lt;span style=&quot;font-family: Arial, sans-serif; background-color: transparent; font-variant-numeric: normal; font-variant-east-asian: normal; font-variant-alternates: normal; font-variant-position: normal; font-variant-emoji: normal; vertical-align: baseline; white-space-collapse: preserve;&quot;&gt;&lt;font&gt;&amp;nbsp;Kafka Message Broke&lt;/font&gt;&lt;/span&gt;&lt;/span&gt;" style="shape=module;align=left;spacingLeft=20;align=center;verticalAlign=top;whiteSpace=wrap;html=1;" vertex="1" parent="1">
          <mxGeometry x="380" y="374" width="140" height="50" as="geometry" />
        </mxCell>
        <mxCell id="yJ8dsvp7RU6qVgDbuZnN-28" style="edgeStyle=orthogonalEdgeStyle;rounded=0;orthogonalLoop=1;jettySize=auto;html=1;entryX=0.5;entryY=0;entryDx=0;entryDy=0;" edge="1" parent="1" target="yJ8dsvp7RU6qVgDbuZnN-27">
          <mxGeometry relative="1" as="geometry">
            <mxPoint x="450" y="440" as="targetPoint" />
            <Array as="points" />
            <mxPoint x="450" y="330" as="sourcePoint" />
          </mxGeometry>
        </mxCell>
        <mxCell id="yJ8dsvp7RU6qVgDbuZnN-33" style="edgeStyle=orthogonalEdgeStyle;rounded=0;orthogonalLoop=1;jettySize=auto;html=1;entryX=0.5;entryY=0;entryDx=0;entryDy=0;" edge="1" parent="1">
          <mxGeometry relative="1" as="geometry">
            <mxPoint x="449.5" y="284" as="targetPoint" />
            <Array as="points" />
            <mxPoint x="449.5" y="240" as="sourcePoint" />
          </mxGeometry>
        </mxCell>
        <mxCell id="yJ8dsvp7RU6qVgDbuZnN-34" style="edgeStyle=orthogonalEdgeStyle;rounded=0;orthogonalLoop=1;jettySize=auto;html=1;exitX=0.5;exitY=1;exitDx=0;exitDy=0;" edge="1" parent="1" source="yJ8dsvp7RU6qVgDbuZnN-27">
          <mxGeometry relative="1" as="geometry">
            <mxPoint x="350" y="440" as="targetPoint" />
            <Array as="points">
              <mxPoint x="450" y="440" />
            </Array>
            <mxPoint x="490" y="424" as="sourcePoint" />
          </mxGeometry>
        </mxCell>
        <mxCell id="yJ8dsvp7RU6qVgDbuZnN-35" style="rounded=0;orthogonalLoop=1;jettySize=auto;html=1;endArrow=none;endFill=0;targetPerimeterSpacing=7;sourcePerimeterSpacing=4;curved=0;orthogonal=0;linecap=round;" edge="1" parent="1">
          <mxGeometry relative="1" as="geometry">
            <mxPoint x="160" y="414" as="sourcePoint" />
            <mxPoint x="160" y="500" as="targetPoint" />
            <Array as="points">
              <mxPoint x="150" y="414" />
              <mxPoint x="160" y="414" />
              <mxPoint x="170" y="414" />
              <mxPoint x="170" y="500" />
              <mxPoint x="150" y="500" />
            </Array>
          </mxGeometry>
        </mxCell>
        <mxCell id="yJ8dsvp7RU6qVgDbuZnN-37" style="edgeStyle=orthogonalEdgeStyle;rounded=0;orthogonalLoop=1;jettySize=auto;html=1;exitX=0.114;exitY=0.64;exitDx=0;exitDy=0;exitPerimeter=0;" edge="1" parent="1" source="yJ8dsvp7RU6qVgDbuZnN-19">
          <mxGeometry relative="1" as="geometry">
            <mxPoint x="170" y="431" as="targetPoint" />
            <Array as="points">
              <mxPoint x="210" y="431" />
            </Array>
            <mxPoint x="270" y="415" as="sourcePoint" />
          </mxGeometry>
        </mxCell>
        <mxCell id="yJ8dsvp7RU6qVgDbuZnN-38" style="edgeStyle=orthogonalEdgeStyle;rounded=0;orthogonalLoop=1;jettySize=auto;html=1;exitX=0.114;exitY=0.64;exitDx=0;exitDy=0;exitPerimeter=0;" edge="1" parent="1">
          <mxGeometry relative="1" as="geometry">
            <mxPoint x="170" y="481" as="targetPoint" />
            <Array as="points">
              <mxPoint x="210" y="481" />
            </Array>
            <mxPoint x="210" y="480" as="sourcePoint" />
          </mxGeometry>
        </mxCell>
      </root>
    </mxGraphModel>
  </diagram>
</mxfile>
